<svg width="375" height="812" viewBox="0 0 375 812" fill="none" xmlns="http://www.w3.org/2000/svg">
<rect width="375" height="812" fill="#1B1B1F"/>
<g clip-path="url(#clip0_22_582)">
<path d="M217 361.973V422.027C216.993 422.902 216.642 423.74 216.023 424.358C215.403 424.977 214.565 425.327 213.69 425.333H160.31C159.433 425.333 158.591 424.985 157.971 424.365C157.35 423.745 157.001 422.904 157 422.027V361.973C157.007 361.098 157.358 360.26 157.977 359.642C158.597 359.023 159.435 358.673 160.31 358.667H213.69C215.517 358.667 217 360.147 217 361.973V361.973ZM210.333 365.333H163.667V418.667H210.333V365.333ZM184.643 395.737L198.787 381.597L203.5 386.31L184.643 405.167L171.677 392.2L176.393 387.487L184.643 395.737V395.737Z" fill="#29292E"/>
<path d="M184.643 395.737L198.787 381.597L203.5 386.31L184.643 405.167L171.677 392.2L176.393 387.487L184.643 395.737Z" fill="#03B352"/>
</g>
<path d="M94.6882 499.36C91.4482 499.36 88.9782 498.49 87.2782 496.75C85.5782 495.01 84.7282 492.33 84.7282 488.71C84.7282 485.15 85.5882 482.49 87.3082 480.73C89.0282 478.95 91.4882 478.06 94.6882 478.06C96.4482 478.06 98.0082 478.36 99.3682 478.96C100.728 479.54 101.798 480.43 102.578 481.63C103.378 482.81 103.778 484.27 103.778 486.01H99.8482C99.8482 484.51 99.3782 483.35 98.4382 482.53C97.5182 481.71 96.2882 481.3 94.7482 481.3C92.6882 481.3 91.1582 481.89 90.1582 483.07C89.1582 484.25 88.6582 486.03 88.6582 488.41V489.01C88.6582 491.41 89.1482 493.2 90.1282 494.38C91.1282 495.54 92.6682 496.12 94.7482 496.12C96.3682 496.12 97.6482 495.72 98.5882 494.92C99.5282 494.1 99.9982 492.95 99.9982 491.47H103.778C103.778 494.05 102.938 496.01 101.258 497.35C99.5982 498.69 97.4082 499.36 94.6882 499.36ZM110.999 499.36C109.719 499.36 108.559 499.05 107.519 498.43C106.499 497.79 105.989 496.62 105.989 494.92C105.989 492.9 106.849 491.48 108.569 490.66C110.289 489.84 112.729 489.43 115.889 489.43V488.11C115.889 487.35 115.689 486.76 115.289 486.34C114.909 485.92 114.209 485.71 113.189 485.71C112.129 485.71 111.379 485.88 110.939 486.22C110.499 486.56 110.279 486.98 110.279 487.48V487.9H106.799C106.779 487.78 106.769 487.56 106.769 487.24C106.769 485.88 107.349 484.81 108.509 484.03C109.689 483.25 111.249 482.86 113.189 482.86C115.289 482.86 116.859 483.29 117.899 484.15C118.959 485.01 119.489 486.24 119.489 487.84V495.37C119.489 495.73 119.589 496 119.789 496.18C119.989 496.34 120.239 496.42 120.539 496.42H121.499V498.88C120.859 499.18 120.109 499.33 119.249 499.33C118.469 499.33 117.819 499.14 117.299 498.76C116.779 498.38 116.429 497.86 116.249 497.2H116.039C114.859 498.64 113.179 499.36 110.999 499.36ZM112.079 496.48C113.259 496.48 114.189 496.14 114.869 495.46C115.549 494.78 115.889 493.86 115.889 492.7V491.98C113.949 491.98 112.429 492.17 111.329 492.55C110.229 492.91 109.679 493.58 109.679 494.56C109.679 495.84 110.479 496.48 112.079 496.48ZM123.829 483.22H126.799L127.129 485.71H127.339C128.059 483.81 129.239 482.86 130.879 482.86C131.439 482.86 131.939 482.95 132.379 483.13V486.52H131.239C128.699 486.52 127.429 487.94 127.429 490.78V499H123.829V483.22ZM134.932 483.22H137.902L138.232 485.71H138.442C139.162 483.81 140.342 482.86 141.982 482.86C142.542 482.86 143.042 482.95 143.482 483.13V486.52H142.342C139.802 486.52 138.532 487.94 138.532 490.78V499H134.932V483.22ZM152.816 499.36C150.216 499.36 148.266 498.69 146.966 497.35C145.686 496.01 145.046 493.93 145.046 491.11C145.046 488.29 145.686 486.21 146.966 484.87C148.266 483.53 150.216 482.86 152.816 482.86C155.416 482.86 157.356 483.53 158.636 484.87C159.936 486.21 160.586 488.29 160.586 491.11C160.586 493.93 159.936 496.01 158.636 497.35C157.356 498.69 155.416 499.36 152.816 499.36ZM152.816 496.42C154.236 496.42 155.266 496.01 155.906 495.19C156.546 494.35 156.866 493.06 156.866 491.32V490.9C156.866 489.16 156.546 487.88 155.906 487.06C155.266 486.22 154.236 485.8 152.816 485.8C151.376 485.8 150.336 486.22 149.696 487.06C149.076 487.88 148.766 489.16 148.766 490.9V491.32C148.766 493.06 149.076 494.35 149.696 495.19C150.336 496.01 151.376 496.42 152.816 496.42ZM175.979 499.36C174.699 499.36 173.539 499.05 172.499 498.43C171.479 497.79 170.969 496.62 170.969 494.92C170.969 492.9 171.829 491.48 173.549 490.66C175.269 489.84 177.709 489.43 180.869 489.43V488.11C180.869 487.35 180.669 486.76 180.269 486.34C179.889 485.92 179.189 485.71 178.169 485.71C177.109 485.71 176.359 485.88 175.919 486.22C175.479 486.56 175.259 486.98 175.259 487.48V487.9H171.779C171.759 487.78 171.749 487.56 171.749 487.24C171.749 485.88 172.329 484.81 173.489 484.03C174.669 483.25 176.229 482.86 178.169 482.86C180.269 482.86 181.839 483.29 182.879 484.15C183.939 485.01 184.469 486.24 184.469 487.84V495.37C184.469 495.73 184.569 496 184.769 496.18C184.969 496.34 185.219 496.42 185.519 496.42H186.479V498.88C185.839 499.18 185.089 499.33 184.229 499.33C183.449 499.33 182.799 499.14 182.279 498.76C181.759 498.38 181.409 497.86 181.229 497.2H181.019C179.839 498.64 178.159 499.36 175.979 499.36ZM177.059 496.48C178.239 496.48 179.169 496.14 179.849 495.46C180.529 494.78 180.869 493.86 180.869 492.7V491.98C178.929 491.98 177.409 492.17 176.309 492.55C175.209 492.91 174.659 493.58 174.659 494.56C174.659 495.84 175.459 496.48 177.059 496.48ZM188.809 477.31H192.409V499H188.809V477.31ZM201.583 499.36C198.183 499.36 196.483 497.53 196.483 493.87V483.22H200.083V493.24C200.083 494.32 200.323 495.09 200.803 495.55C201.303 496.01 202.033 496.24 202.993 496.24C203.993 496.24 204.833 495.88 205.513 495.16C206.193 494.44 206.533 493.52 206.533 492.4V483.22H210.133V499H207.163L206.863 496.9H206.653C206.073 497.68 205.353 498.29 204.493 498.73C203.653 499.15 202.683 499.36 201.583 499.36ZM216.937 504.46C215.817 504.46 214.857 504.13 214.057 503.47C213.277 502.83 212.887 501.93 212.887 500.77C212.887 499.33 213.707 498.24 215.347 497.5C214.867 497.24 214.487 496.91 214.207 496.51C213.927 496.11 213.787 495.64 213.787 495.1C213.787 494.4 214.047 493.82 214.567 493.36C215.107 492.9 215.757 492.58 216.517 492.4C215.797 491.94 215.237 491.35 214.837 490.63C214.457 489.91 214.267 489.1 214.267 488.2C214.267 486.54 214.857 485.24 216.037 484.3C217.237 483.34 218.907 482.86 221.047 482.86C222.247 482.86 223.287 483.02 224.167 483.34C224.807 482.96 225.277 482.53 225.577 482.05C225.877 481.55 226.047 481.07 226.087 480.61H229.567C229.567 481.65 229.277 482.51 228.697 483.19C228.117 483.87 227.317 484.32 226.297 484.54C227.337 485.52 227.857 486.74 227.857 488.2C227.857 489.86 227.277 491.17 226.117 492.13C224.957 493.09 223.327 493.57 221.227 493.57H218.767C218.347 493.57 218.017 493.66 217.777 493.84C217.537 494.02 217.417 494.27 217.417 494.59C217.417 494.89 217.527 495.14 217.747 495.34C217.967 495.52 218.267 495.61 218.647 495.61H225.547C226.727 495.61 227.697 496 228.457 496.78C229.217 497.54 229.597 498.51 229.597 499.69C229.597 500.57 229.367 501.37 228.907 502.09C228.447 502.83 227.787 503.41 226.927 503.83C226.087 504.25 225.117 504.46 224.017 504.46H216.937ZM221.077 491.02C222.137 491.02 222.937 490.78 223.477 490.3C224.017 489.8 224.287 489.1 224.287 488.2C224.287 487.3 224.017 486.61 223.477 486.13C222.937 485.63 222.137 485.38 221.077 485.38C220.017 485.38 219.217 485.63 218.677 486.13C218.137 486.61 217.867 487.3 217.867 488.2C217.867 489.12 218.137 489.82 218.677 490.3C219.217 490.78 220.017 491.02 221.077 491.02ZM224.017 501.85C224.577 501.85 225.047 501.7 225.427 501.4C225.807 501.12 225.997 500.74 225.997 500.26C225.997 499.76 225.837 499.37 225.517 499.09C225.197 498.81 224.777 498.67 224.257 498.67H218.197C217.697 498.67 217.287 498.82 216.967 499.12C216.667 499.42 216.517 499.8 216.517 500.26C216.517 500.74 216.667 501.12 216.967 501.4C217.287 501.7 217.697 501.85 218.197 501.85H224.017ZM235.92 499.36C234.64 499.36 233.48 499.05 232.44 498.43C231.42 497.79 230.91 496.62 230.91 494.92C230.91 492.9 231.77 491.48 233.49 490.66C235.21 489.84 237.65 489.43 240.81 489.43V488.11C240.81 487.35 240.61 486.76 240.21 486.34C239.83 485.92 239.13 485.71 238.11 485.71C237.05 485.71 236.3 485.88 235.86 486.22C235.42 486.56 235.2 486.98 235.2 487.48V487.9H231.72C231.7 487.78 231.69 487.56 231.69 487.24C231.69 485.88 232.27 484.81 233.43 484.03C234.61 483.25 236.17 482.86 238.11 482.86C240.21 482.86 241.78 483.29 242.82 484.15C243.88 485.01 244.41 486.24 244.41 487.84V495.37C244.41 495.73 244.51 496 244.71 496.18C244.91 496.34 245.16 496.42 245.46 496.42H246.42V498.88C245.78 499.18 245.03 499.33 244.17 499.33C243.39 499.33 242.74 499.14 242.22 498.76C241.7 498.38 241.35 497.86 241.17 497.2H240.96C239.78 498.64 238.1 499.36 235.92 499.36ZM237 496.48C238.18 496.48 239.11 496.14 239.79 495.46C240.47 494.78 240.81 493.86 240.81 492.7V491.98C238.87 491.98 237.35 492.17 236.25 492.55C235.15 492.91 234.6 493.58 234.6 494.56C234.6 495.84 235.4 496.48 237 496.48ZM254.03 499.36C252.03 499.36 250.48 498.68 249.38 497.32C248.28 495.96 247.73 493.88 247.73 491.08C247.73 488.36 248.28 486.31 249.38 484.93C250.48 483.55 251.95 482.86 253.79 482.86C255.99 482.86 257.57 483.59 258.53 485.05H258.71V477.31H262.31V499H259.34L259.04 496.9H258.86C258.34 497.7 257.66 498.31 256.82 498.73C255.98 499.15 255.05 499.36 254.03 499.36ZM255.11 496.27C256.35 496.27 257.26 495.86 257.84 495.04C258.42 494.2 258.71 492.96 258.71 491.32V490.96C258.71 487.62 257.51 485.95 255.11 485.95C253.79 485.95 252.85 486.35 252.29 487.15C251.73 487.93 251.45 489.19 251.45 490.93V491.32C251.45 493.04 251.73 494.3 252.29 495.1C252.85 495.88 253.79 496.27 255.11 496.27ZM273.284 499.36C270.684 499.36 268.734 498.69 267.434 497.35C266.154 496.01 265.514 493.93 265.514 491.11C265.514 488.29 266.154 486.21 267.434 484.87C268.734 483.53 270.684 482.86 273.284 482.86C275.884 482.86 277.824 483.53 279.104 484.87C280.404 486.21 281.054 488.29 281.054 491.11C281.054 493.93 280.404 496.01 279.104 497.35C277.824 498.69 275.884 499.36 273.284 499.36ZM273.284 496.42C274.704 496.42 275.734 496.01 276.374 495.19C277.014 494.35 277.334 493.06 277.334 491.32V490.9C277.334 489.16 277.014 487.88 276.374 487.06C275.734 486.22 274.704 485.8 273.284 485.8C271.844 485.8 270.804 486.22 270.164 487.06C269.544 487.88 269.234 489.16 269.234 490.9V491.32C269.234 493.06 269.544 494.35 270.164 495.19C270.804 496.01 271.844 496.42 273.284 496.42ZM284.798 478.42H288.968L288.008 493.36H285.728L284.798 478.42ZM285.008 495.19H288.758V499H285.008V495.19Z" fill="white"/>
<path d="M103.963 539L105.061 535.911H109.471L110.568 539H111.953L107.948 528.091H106.584L102.578 539H103.963ZM105.476 534.739L107.223 529.817H107.308L109.056 534.739H105.476ZM116.785 542.239C118.745 542.239 120.322 541.344 120.322 539.234V530.818H119.107V532.118H118.979C118.702 531.692 118.191 530.712 116.593 530.712C114.526 530.712 113.099 532.352 113.099 534.866C113.099 537.423 114.59 538.872 116.572 538.872C118.17 538.872 118.681 537.935 118.958 537.487H119.064V539.149C119.064 540.513 118.106 541.131 116.785 541.131C115.299 541.131 114.777 540.348 114.441 539.895L113.439 540.598C113.951 541.456 114.958 542.239 116.785 542.239ZM116.742 537.743C115.165 537.743 114.356 536.55 114.356 534.845C114.356 533.183 115.144 531.841 116.742 531.841C118.276 531.841 119.086 533.077 119.086 534.845C119.086 536.656 118.255 537.743 116.742 537.743ZM125.947 539.17C128.163 539.17 129.654 537.487 129.654 534.952C129.654 532.395 128.163 530.712 125.947 530.712C123.731 530.712 122.239 532.395 122.239 534.952C122.239 537.487 123.731 539.17 125.947 539.17ZM125.947 538.041C124.263 538.041 123.496 536.592 123.496 534.952C123.496 533.311 124.263 531.841 125.947 531.841C127.63 531.841 128.397 533.311 128.397 534.952C128.397 536.592 127.63 538.041 125.947 538.041ZM131.573 539H132.83V533.822C132.83 532.714 133.704 531.905 134.897 531.905C135.232 531.905 135.579 531.969 135.664 531.99V530.712C135.52 530.701 135.19 530.69 135.003 530.69C134.023 530.69 133.171 531.244 132.873 532.054H132.787V530.818H131.573V539ZM139.562 539.192C140.989 539.192 141.735 538.425 141.991 537.892H142.055V539H143.312V533.609C143.312 531.01 141.33 530.712 140.286 530.712C139.05 530.712 137.644 531.138 137.005 532.629L138.198 533.055C138.475 532.459 139.13 531.82 140.329 531.82C141.485 531.82 142.055 532.432 142.055 533.482V533.524C142.055 534.131 141.437 534.078 139.945 534.27C138.427 534.467 136.77 534.803 136.77 536.678C136.77 538.276 138.006 539.192 139.562 539.192ZM139.753 538.062C138.752 538.062 138.028 537.615 138.028 536.741C138.028 535.783 138.901 535.484 139.881 535.357C140.414 535.293 141.841 535.143 142.055 534.888V536.038C142.055 537.061 141.245 538.062 139.753 538.062ZM156.515 530.818H155.152L152.893 537.338H152.808L150.549 530.818H149.186L152.211 539H153.49L156.515 530.818ZM161.205 539.17C163.421 539.17 164.913 537.487 164.913 534.952C164.913 532.395 163.421 530.712 161.205 530.712C158.989 530.712 157.498 532.395 157.498 534.952C157.498 537.487 158.989 539.17 161.205 539.17ZM161.205 538.041C159.522 538.041 158.755 536.592 158.755 534.952C158.755 533.311 159.522 531.841 161.205 531.841C162.889 531.841 163.656 533.311 163.656 534.952C163.656 536.592 162.889 538.041 161.205 538.041ZM170.156 539.17C171.967 539.17 173.16 538.062 173.373 536.614H172.116C171.881 537.509 171.136 538.041 170.156 538.041C168.664 538.041 167.705 536.805 167.705 534.909C167.705 533.055 168.685 531.841 170.156 531.841C171.264 531.841 171.924 532.523 172.116 533.268H173.373C173.16 531.734 171.86 530.712 170.134 530.712C167.918 530.712 166.448 532.459 166.448 534.952C166.448 537.402 167.854 539.17 170.156 539.17ZM178.641 539.17C180.303 539.17 181.517 538.339 181.901 537.104L180.686 536.763C180.367 537.615 179.626 538.041 178.641 538.041C177.166 538.041 176.148 537.088 176.09 535.335H182.029V534.803C182.029 531.756 180.218 530.712 178.513 530.712C176.297 530.712 174.827 532.459 174.827 534.973C174.827 537.487 176.276 539.17 178.641 539.17ZM176.09 534.249C176.175 532.975 177.075 531.841 178.513 531.841C179.877 531.841 180.75 532.864 180.75 534.249H176.09ZM177.341 529.838L178.449 528.347L179.557 529.838H180.75V529.753L179.025 527.537H177.874L176.148 529.753V529.838H177.341ZM193.955 532.651C193.561 531.489 192.677 530.712 191.058 530.712C189.332 530.712 188.053 531.692 188.053 533.077C188.053 534.206 188.724 534.962 190.227 535.314L191.59 535.634C192.416 535.825 192.805 536.219 192.805 536.784C192.805 537.487 192.059 538.062 190.887 538.062C189.859 538.062 189.215 537.62 188.991 536.741L187.798 537.04C188.091 538.43 189.236 539.17 190.908 539.17C192.81 539.17 194.104 538.132 194.104 536.72C194.104 535.58 193.391 534.861 191.931 534.504L190.717 534.206C189.747 533.966 189.31 533.641 189.31 533.013C189.31 532.31 190.056 531.798 191.058 531.798C192.155 531.798 192.608 532.406 192.826 532.97L193.955 532.651ZM199.321 539.17C201.537 539.17 203.028 537.487 203.028 534.952C203.028 532.395 201.537 530.712 199.321 530.712C197.105 530.712 195.613 532.395 195.613 534.952C195.613 537.487 197.105 539.17 199.321 539.17ZM199.321 538.041C197.637 538.041 196.87 536.592 196.87 534.952C196.87 533.311 197.637 531.841 199.321 531.841C201.004 531.841 201.771 533.311 201.771 534.952C201.771 536.592 201.004 538.041 199.321 538.041ZM198.745 529.71H199.853L201.515 527.239H200.045L198.745 529.71ZM209.166 542.068H210.423V537.743H210.529C210.806 538.19 211.339 539.17 212.916 539.17C214.961 539.17 216.389 537.53 216.389 534.93C216.389 532.352 214.961 530.712 212.894 530.712C211.296 530.712 210.806 531.692 210.529 532.118H210.38V530.818H209.166V542.068ZM210.402 534.909C210.402 533.077 211.211 531.841 212.745 531.841C214.343 531.841 215.132 533.183 215.132 534.909C215.132 536.656 214.322 538.041 212.745 538.041C211.232 538.041 210.402 536.763 210.402 534.909ZM218.306 539H219.563V533.822C219.563 532.714 220.437 531.905 221.63 531.905C221.966 531.905 222.312 531.969 222.397 531.99V530.712C222.253 530.701 221.923 530.69 221.737 530.69C220.757 530.69 219.904 531.244 219.606 532.054H219.521V530.818H218.306V539ZM227.069 539.17C228.731 539.17 229.945 538.339 230.329 537.104L229.114 536.763C228.795 537.615 228.054 538.041 227.069 538.041C225.593 538.041 224.576 537.088 224.517 535.335H230.457V534.803C230.457 531.756 228.645 530.712 226.941 530.712C224.725 530.712 223.255 532.459 223.255 534.973C223.255 537.487 224.704 539.17 227.069 539.17ZM224.517 534.249C224.602 532.975 225.503 531.841 226.941 531.841C228.305 531.841 229.178 532.864 229.178 534.249H224.517ZM235.693 539.17C237.504 539.17 238.697 538.062 238.91 536.614H237.653C237.419 537.509 236.673 538.041 235.693 538.041C234.201 538.041 233.242 536.805 233.242 534.909C233.242 533.055 234.223 531.841 235.693 531.841C236.801 531.841 237.461 532.523 237.653 533.268H238.91C238.697 531.734 237.397 530.712 235.671 530.712C233.455 530.712 231.985 532.459 231.985 534.952C231.985 537.402 233.392 539.17 235.693 539.17ZM240.748 539H242.005V530.818H240.748V539ZM241.387 529.455C241.877 529.455 242.282 529.071 242.282 528.602C242.282 528.134 241.877 527.75 241.387 527.75C240.897 527.75 240.492 528.134 240.492 528.602C240.492 529.071 240.897 529.455 241.387 529.455ZM250.103 532.651C249.709 531.489 248.824 530.712 247.205 530.712C245.479 530.712 244.201 531.692 244.201 533.077C244.201 534.206 244.872 534.962 246.374 535.314L247.738 535.634C248.563 535.825 248.952 536.219 248.952 536.784C248.952 537.487 248.206 538.062 247.035 538.062C246.007 538.062 245.362 537.62 245.138 536.741L243.945 537.04C244.238 538.43 245.383 539.17 247.056 539.17C248.958 539.17 250.252 538.132 250.252 536.72C250.252 535.58 249.538 534.861 248.079 534.504L246.864 534.206C245.895 533.966 245.458 533.641 245.458 533.013C245.458 532.31 246.204 531.798 247.205 531.798C248.302 531.798 248.755 532.406 248.973 532.97L250.103 532.651ZM254.552 539.192C255.979 539.192 256.725 538.425 256.981 537.892H257.045V539H258.302V533.609C258.302 531.01 256.32 530.712 255.276 530.712C254.041 530.712 252.634 531.138 251.995 532.629L253.188 533.055C253.465 532.459 254.12 531.82 255.319 531.82C256.475 531.82 257.045 532.432 257.045 533.482V533.524C257.045 534.131 256.427 534.078 254.935 534.27C253.417 534.467 251.761 534.803 251.761 536.678C251.761 538.276 252.996 539.192 254.552 539.192ZM254.744 538.062C253.742 538.062 253.018 537.615 253.018 536.741C253.018 535.783 253.891 535.484 254.871 535.357C255.404 535.293 256.832 535.143 257.045 534.888V536.038C257.045 537.061 256.235 538.062 254.744 538.062ZM264.815 539H266.072V530.818H264.815V539ZM265.454 529.455C265.944 529.455 266.349 529.071 266.349 528.602C266.349 528.134 265.944 527.75 265.454 527.75C264.964 527.75 264.559 528.134 264.559 528.602C264.559 529.071 264.964 529.455 265.454 529.455ZM268.375 539H269.632V533.822C269.632 532.714 270.505 531.905 271.699 531.905C272.034 531.905 272.38 531.969 272.466 531.99V530.712C272.322 530.701 271.992 530.69 271.805 530.69C270.825 530.69 269.973 531.244 269.674 532.054H269.589V530.818H268.375V539ZM80.5797 564.192C82.0073 564.192 82.753 563.425 83.0087 562.892H83.0726V564H84.3297V558.609C84.3297 556.01 82.3482 555.712 81.3042 555.712C80.0684 555.712 78.6621 556.138 78.0229 557.629L79.2161 558.055C79.4931 557.459 80.1483 556.82 81.3468 556.82C82.5027 556.82 83.0726 557.432 83.0726 558.482V558.524C83.0726 559.131 82.4547 559.078 80.9632 559.27C79.4451 559.467 77.7885 559.803 77.7885 561.678C77.7885 563.276 79.0243 564.192 80.5797 564.192ZM80.7715 563.062C79.7701 563.062 79.0456 562.615 79.0456 561.741C79.0456 560.783 79.9192 560.484 80.8993 560.357C81.432 560.293 82.8596 560.143 83.0726 559.888V561.038C83.0726 562.061 82.263 563.062 80.7715 563.062ZM90.1824 555.818H88.4353V553.858H87.1782V555.818H85.9424V556.884H87.1782V561.997C87.1782 563.425 88.3287 564.107 89.3941 564.107C89.8628 564.107 90.1611 564.021 90.3316 563.957L90.0759 562.828C89.9694 562.849 89.7989 562.892 89.5219 562.892C88.968 562.892 88.4353 562.722 88.4353 561.656V556.884H90.1824V555.818ZM95.4159 564.17C97.0779 564.17 98.2923 563.339 98.6759 562.104L97.4614 561.763C97.1418 562.615 96.4014 563.041 95.4159 563.041C93.9404 563.041 92.923 562.088 92.8644 560.335H98.8037V559.803C98.8037 556.756 96.9926 555.712 95.2881 555.712C93.0722 555.712 91.602 557.459 91.602 559.973C91.602 562.487 93.0509 564.17 95.4159 564.17ZM92.8644 559.249C92.9497 557.975 93.8499 556.841 95.2881 556.841C96.6517 556.841 97.5253 557.864 97.5253 559.249H92.8644ZM94.6489 554.71H95.7568L97.4188 552.239H95.9486L94.6489 554.71ZM107.342 564.192C108.77 564.192 109.516 563.425 109.771 562.892H109.835V564H111.092V558.609C111.092 556.01 109.111 555.712 108.067 555.712C106.831 555.712 105.425 556.138 104.786 557.629L105.979 558.055C106.256 557.459 106.911 556.82 108.109 556.82C109.265 556.82 109.835 557.432 109.835 558.482V558.524C109.835 559.131 109.217 559.078 107.726 559.27C106.208 559.467 104.551 559.803 104.551 561.678C104.551 563.276 105.787 564.192 107.342 564.192ZM107.534 563.062C106.533 563.062 105.808 562.615 105.808 561.741C105.808 560.783 106.682 560.484 107.662 560.357C108.195 560.293 109.622 560.143 109.835 559.888V561.038C109.835 562.061 109.026 563.062 107.534 563.062ZM120.93 564.17C122.741 564.17 123.934 563.062 124.147 561.614H122.89C122.655 562.509 121.91 563.041 120.93 563.041C119.438 563.041 118.479 561.805 118.479 559.909C118.479 558.055 119.459 556.841 120.93 556.841C122.037 556.841 122.698 557.523 122.89 558.268H124.147C123.934 556.734 122.634 555.712 120.908 555.712C118.692 555.712 117.222 557.459 117.222 559.952C117.222 562.402 118.628 564.17 120.93 564.17ZM129.308 564.17C131.524 564.17 133.016 562.487 133.016 559.952C133.016 557.395 131.524 555.712 129.308 555.712C127.093 555.712 125.601 557.395 125.601 559.952C125.601 562.487 127.093 564.17 129.308 564.17ZM129.308 563.041C127.625 563.041 126.858 561.592 126.858 559.952C126.858 558.311 127.625 556.841 129.308 556.841C130.992 556.841 131.759 558.311 131.759 559.952C131.759 561.592 130.992 563.041 129.308 563.041ZM136.192 559.078C136.192 557.651 137.076 556.841 138.28 556.841C139.446 556.841 140.155 557.603 140.155 558.886V564H141.412V558.801C141.412 556.713 140.299 555.712 138.642 555.712C137.406 555.712 136.639 556.266 136.256 557.097H136.149V555.818H134.935V564H136.192V559.078ZM147.033 564.17C148.844 564.17 150.037 563.062 150.25 561.614H148.993C148.759 562.509 148.013 563.041 147.033 563.041C145.542 563.041 144.583 561.805 144.583 559.909C144.583 558.055 145.563 556.841 147.033 556.841C148.141 556.841 148.801 557.523 148.993 558.268H150.25C150.037 556.734 148.738 555.712 147.012 555.712C144.796 555.712 143.326 557.459 143.326 559.952C143.326 562.402 144.732 564.17 147.033 564.17ZM155.518 564.17C157.18 564.17 158.395 563.339 158.778 562.104L157.564 561.763C157.244 562.615 156.504 563.041 155.518 563.041C154.043 563.041 153.026 562.088 152.967 560.335H158.906V559.803C158.906 556.756 157.095 555.712 155.391 555.712C153.175 555.712 151.705 557.459 151.705 559.973C151.705 562.487 153.153 564.17 155.518 564.17ZM152.967 559.249C153.052 557.975 153.952 556.841 155.391 556.841C156.754 556.841 157.628 557.864 157.628 559.249H152.967ZM166.614 557.651C166.22 556.489 165.336 555.712 163.716 555.712C161.99 555.712 160.712 556.692 160.712 558.077C160.712 559.206 161.383 559.962 162.885 560.314L164.249 560.634C165.075 560.825 165.463 561.219 165.463 561.784C165.463 562.487 164.718 563.062 163.546 563.062C162.518 563.062 161.873 562.62 161.65 561.741L160.456 562.04C160.749 563.43 161.895 564.17 163.567 564.17C165.469 564.17 166.763 563.132 166.763 561.72C166.763 560.58 166.049 559.861 164.59 559.504L163.375 559.206C162.406 558.966 161.969 558.641 161.969 558.013C161.969 557.31 162.715 556.798 163.716 556.798C164.814 556.798 165.266 557.406 165.485 557.97L166.614 557.651ZM174.451 557.651C174.057 556.489 173.172 555.712 171.553 555.712C169.827 555.712 168.549 556.692 168.549 558.077C168.549 559.206 169.22 559.962 170.722 560.314L172.086 560.634C172.911 560.825 173.3 561.219 173.3 561.784C173.3 562.487 172.555 563.062 171.383 563.062C170.355 563.062 169.71 562.62 169.486 561.741L168.293 562.04C168.586 563.43 169.731 564.17 171.404 564.17C173.306 564.17 174.6 563.132 174.6 561.72C174.6 560.58 173.886 559.861 172.427 559.504L171.212 559.206C170.243 558.966 169.806 558.641 169.806 558.013C169.806 557.31 170.552 556.798 171.553 556.798C172.65 556.798 173.103 557.406 173.322 557.97L174.451 557.651ZM176.492 564H177.749V555.818H176.492V564ZM177.132 554.455C177.622 554.455 178.026 554.071 178.026 553.602C178.026 553.134 177.622 552.75 177.132 552.75C176.642 552.75 176.237 553.134 176.237 553.602C176.237 554.071 176.642 554.455 177.132 554.455ZM183.376 564.17C185.592 564.17 187.083 562.487 187.083 559.952C187.083 557.395 185.592 555.712 183.376 555.712C181.16 555.712 179.668 557.395 179.668 559.952C179.668 562.487 181.16 564.17 183.376 564.17ZM183.376 563.041C181.693 563.041 180.926 561.592 180.926 559.952C180.926 558.311 181.693 556.841 183.376 556.841C185.059 556.841 185.826 558.311 185.826 559.952C185.826 561.592 185.059 563.041 183.376 563.041ZM190.259 559.078C190.259 557.651 191.143 556.841 192.347 556.841C193.514 556.841 194.222 557.603 194.222 558.886V564H195.479V558.801C195.479 556.713 194.366 555.712 192.71 555.712C191.474 555.712 190.707 556.266 190.323 557.097H190.217V555.818H189.002V564H190.259V559.078ZM200.184 564.192C201.612 564.192 202.358 563.425 202.613 562.892H202.677V564H203.934V558.609C203.934 556.01 201.953 555.712 200.909 555.712C199.673 555.712 198.267 556.138 197.627 557.629L198.821 558.055C199.098 557.459 199.753 556.82 200.951 556.82C202.107 556.82 202.677 557.432 202.677 558.482V558.524C202.677 559.131 202.059 559.078 200.568 559.27C199.05 559.467 197.393 559.803 197.393 561.678C197.393 563.276 198.629 564.192 200.184 564.192ZM200.376 563.062C199.375 563.062 198.65 562.615 198.65 561.741C198.65 560.783 199.524 560.484 200.504 560.357C201.036 560.293 202.464 560.143 202.677 559.888V561.038C202.677 562.061 201.867 563.062 200.376 563.062ZM200.419 554.71H201.527L203.188 552.239H201.718L200.419 554.71ZM206.229 564H207.486V558.822C207.486 557.714 208.359 556.905 209.553 556.905C209.888 556.905 210.234 556.969 210.32 556.99V555.712C210.176 555.701 209.846 555.69 209.659 555.69C208.679 555.69 207.827 556.244 207.528 557.054H207.443V555.818H206.229V564ZM211.81 564H213.067V555.818H211.81V564ZM212.449 554.455C212.939 554.455 213.344 554.071 213.344 553.602C213.344 553.134 212.939 552.75 212.449 552.75C211.959 552.75 211.554 553.134 211.554 553.602C211.554 554.071 211.959 554.455 212.449 554.455ZM217.777 564.192C219.205 564.192 219.95 563.425 220.206 562.892H220.27V564H221.527V558.609C221.527 556.01 219.545 555.712 218.501 555.712C217.266 555.712 215.859 556.138 215.22 557.629L216.413 558.055C216.69 557.459 217.346 556.82 218.544 556.82C219.7 556.82 220.27 557.432 220.27 558.482V558.524C220.27 559.131 219.652 559.078 218.161 559.27C216.642 559.467 214.986 559.803 214.986 561.678C214.986 563.276 216.222 564.192 217.777 564.192ZM217.969 563.062C216.967 563.062 216.243 562.615 216.243 561.741C216.243 560.783 217.116 560.484 218.097 560.357C218.629 560.293 220.057 560.143 220.27 559.888V561.038C220.27 562.061 219.46 563.062 217.969 563.062ZM231.13 564.17C232.706 564.17 233.239 563.19 233.516 562.743H233.665V564H234.88V553.091H233.623V557.118H233.516C233.239 556.692 232.749 555.712 231.151 555.712C229.084 555.712 227.657 557.352 227.657 559.93C227.657 562.53 229.084 564.17 231.13 564.17ZM231.3 563.041C229.723 563.041 228.914 561.656 228.914 559.909C228.914 558.183 229.702 556.841 231.3 556.841C232.834 556.841 233.644 558.077 233.644 559.909C233.644 561.763 232.813 563.041 231.3 563.041ZM239.764 564.192C241.192 564.192 241.938 563.425 242.193 562.892H242.257V564H243.514V558.609C243.514 556.01 241.533 555.712 240.489 555.712C239.253 555.712 237.847 556.138 237.207 557.629L238.401 558.055C238.678 557.459 239.333 556.82 240.531 556.82C241.687 556.82 242.257 557.432 242.257 558.482V558.524C242.257 559.131 241.639 559.078 240.148 559.27C238.63 559.467 236.973 559.803 236.973 561.678C236.973 563.276 238.209 564.192 239.764 564.192ZM239.956 563.062C238.955 563.062 238.23 562.615 238.23 561.741C238.23 560.783 239.104 560.484 240.084 560.357C240.617 560.293 242.044 560.143 242.257 559.888V561.038C242.257 562.061 241.448 563.062 239.956 563.062ZM250.198 564H251.519V559.739H253.905C254.001 559.739 254.092 559.739 254.182 559.733L256.483 564H258.018L255.551 559.494C256.942 559.02 257.591 557.885 257.591 556.436C257.591 554.508 256.441 553.091 253.884 553.091H250.198V564ZM251.519 558.545V554.263H253.841C255.61 554.263 256.292 555.126 256.292 556.436C256.292 557.746 255.61 558.545 253.863 558.545H251.519ZM259.793 564H266.462V562.828H261.114V559.121H266.036V557.949H261.114V554.263H266.377V553.091H259.793V564ZM277.408 553.091H276.108V561.678H276.002L270.036 553.091H268.758V564H270.079V555.435H270.185L276.13 564H277.408V553.091ZM279.455 554.263H282.885V564H284.206V554.263H287.637V553.091H279.455V554.263ZM290.315 553.091H288.759L292.275 558.545L288.759 564H290.315L293.127 559.547H293.212L296.025 564H297.58L294.15 558.545L297.58 553.091H296.025L293.212 557.629H293.127L290.315 553.091ZM105.858 592.068H107.115V587.743H107.221C107.498 588.19 108.031 589.17 109.608 589.17C111.653 589.17 113.081 587.53 113.081 584.93C113.081 582.352 111.653 580.712 109.586 580.712C107.988 580.712 107.498 581.692 107.221 582.118H107.072V580.818H105.858V592.068ZM107.093 584.909C107.093 583.077 107.903 581.841 109.437 581.841C111.035 581.841 111.824 583.183 111.824 584.909C111.824 586.656 111.014 588.041 109.437 588.041C107.924 588.041 107.093 586.763 107.093 584.909ZM118.429 589.17C120.091 589.17 121.305 588.339 121.689 587.104L120.474 586.763C120.154 587.615 119.414 588.041 118.429 588.041C116.953 588.041 115.936 587.088 115.877 585.335H121.816V584.803C121.816 581.756 120.005 580.712 118.301 580.712C116.085 580.712 114.615 582.459 114.615 584.973C114.615 587.487 116.064 589.17 118.429 589.17ZM115.877 584.249C115.962 582.975 116.863 581.841 118.301 581.841C119.664 581.841 120.538 582.864 120.538 584.249H115.877ZM127.031 592.239C128.991 592.239 130.568 591.344 130.568 589.234V580.818H129.354V582.118H129.226C128.949 581.692 128.438 580.712 126.839 580.712C124.773 580.712 123.345 582.352 123.345 584.866C123.345 587.423 124.837 588.872 126.818 588.872C128.416 588.872 128.928 587.935 129.205 587.487H129.311V589.149C129.311 590.513 128.352 591.131 127.031 591.131C125.545 591.131 125.023 590.348 124.688 589.895L123.686 590.598C124.197 591.456 125.204 592.239 127.031 592.239ZM126.989 587.743C125.412 587.743 124.602 586.55 124.602 584.845C124.602 583.183 125.391 581.841 126.989 581.841C128.523 581.841 129.332 583.077 129.332 584.845C129.332 586.656 128.501 587.743 126.989 587.743ZM135.277 589.192C136.705 589.192 137.45 588.425 137.706 587.892H137.77V589H139.027V583.609C139.027 581.01 137.045 580.712 136.001 580.712C134.766 580.712 133.359 581.138 132.72 582.629L133.913 583.055C134.19 582.459 134.846 581.82 136.044 581.82C137.2 581.82 137.77 582.432 137.77 583.482V583.524C137.77 584.131 137.152 584.078 135.661 584.27C134.142 584.467 132.486 584.803 132.486 586.678C132.486 588.276 133.722 589.192 135.277 589.192ZM135.469 588.062C134.467 588.062 133.743 587.615 133.743 586.741C133.743 585.783 134.616 585.484 135.597 585.357C136.129 585.293 137.557 585.143 137.77 584.888V586.038C137.77 587.061 136.96 588.062 135.469 588.062ZM141.321 589H142.579V583.822C142.579 582.714 143.452 581.905 144.645 581.905C144.981 581.905 145.327 581.969 145.412 581.99V580.712C145.269 580.701 144.938 580.69 144.752 580.69C143.772 580.69 142.919 581.244 142.621 582.054H142.536V580.818H141.321V589ZM154.445 589.17C156.661 589.17 158.153 587.487 158.153 584.952C158.153 582.395 156.661 580.712 154.445 580.712C152.229 580.712 150.738 582.395 150.738 584.952C150.738 587.487 152.229 589.17 154.445 589.17ZM154.445 588.041C152.762 588.041 151.995 586.592 151.995 584.952C151.995 583.311 152.762 581.841 154.445 581.841C156.128 581.841 156.895 583.311 156.895 584.952C156.895 586.592 156.128 588.041 154.445 588.041ZM170.086 582.651C169.691 581.489 168.807 580.712 167.188 580.712C165.462 580.712 164.184 581.692 164.184 583.077C164.184 584.206 164.855 584.962 166.357 585.314L167.721 585.634C168.546 585.825 168.935 586.219 168.935 586.784C168.935 587.487 168.189 588.062 167.017 588.062C165.989 588.062 165.345 587.62 165.121 586.741L163.928 587.04C164.221 588.43 165.366 589.17 167.039 589.17C168.94 589.17 170.235 588.132 170.235 586.72C170.235 585.58 169.521 584.861 168.062 584.504L166.847 584.206C165.878 583.966 165.441 583.641 165.441 583.013C165.441 582.31 166.187 581.798 167.188 581.798C168.285 581.798 168.738 582.406 168.956 582.97L170.086 582.651ZM175.558 589.17C177.219 589.17 178.434 588.339 178.817 587.104L177.603 586.763C177.283 587.615 176.543 588.041 175.558 588.041C174.082 588.041 173.065 587.088 173.006 585.335H178.945V584.803C178.945 581.756 177.134 580.712 175.43 580.712C173.214 580.712 171.744 582.459 171.744 584.973C171.744 587.487 173.192 589.17 175.558 589.17ZM173.006 584.249C173.091 582.975 173.991 581.841 175.43 581.841C176.793 581.841 177.667 582.864 177.667 584.249H173.006ZM186.014 585.655C186.014 587.189 184.842 587.892 183.904 587.892C182.86 587.892 182.115 587.125 182.115 585.932V580.818H180.858V586.017C180.858 588.105 181.966 589.107 183.5 589.107C184.735 589.107 185.545 588.446 185.929 587.615H186.014V589H187.271V580.818H186.014V585.655ZM196.2 589.192C197.627 589.192 198.373 588.425 198.629 587.892H198.693V589H199.95V583.609C199.95 581.01 197.968 580.712 196.924 580.712C195.688 580.712 194.282 581.138 193.643 582.629L194.836 583.055C195.113 582.459 195.768 581.82 196.967 581.82C198.123 581.82 198.693 582.432 198.693 583.482V583.524C198.693 584.131 198.075 584.078 196.583 584.27C195.065 584.467 193.409 584.803 193.409 586.678C193.409 588.276 194.644 589.192 196.2 589.192ZM196.392 588.062C195.39 588.062 194.666 587.615 194.666 586.741C194.666 585.783 195.539 585.484 196.519 585.357C197.052 585.293 198.48 585.143 198.693 584.888V586.038C198.693 587.061 197.883 588.062 196.392 588.062ZM207.401 585.655C207.401 587.189 206.229 587.892 205.291 587.892C204.247 587.892 203.501 587.125 203.501 585.932V580.818H202.244V586.017C202.244 588.105 203.352 589.107 204.886 589.107C206.122 589.107 206.932 588.446 207.315 587.615H207.401V589H208.658V580.818H207.401V585.655ZM214.518 580.818H212.771V578.858H211.514V580.818H210.278V581.884H211.514V586.997C211.514 588.425 212.665 589.107 213.73 589.107C214.199 589.107 214.497 589.021 214.668 588.957L214.412 587.828C214.305 587.849 214.135 587.892 213.858 587.892C213.304 587.892 212.771 587.722 212.771 586.656V581.884H214.518V580.818ZM219.645 589.17C221.861 589.17 223.353 587.487 223.353 584.952C223.353 582.395 221.861 580.712 219.645 580.712C217.429 580.712 215.938 582.395 215.938 584.952C215.938 587.487 217.429 589.17 219.645 589.17ZM219.645 588.041C217.962 588.041 217.195 586.592 217.195 584.952C217.195 583.311 217.962 581.841 219.645 581.841C221.329 581.841 222.096 583.311 222.096 584.952C222.096 586.592 221.329 588.041 219.645 588.041ZM225.272 589H226.529V583.886C226.529 582.688 227.402 581.841 228.382 581.841C229.336 581.841 230.002 582.464 230.002 583.396V589H231.28V583.673C231.28 582.619 231.941 581.841 233.091 581.841C233.986 581.841 234.753 582.315 234.753 583.524V589H236.01V583.524C236.01 581.601 234.977 580.712 233.517 580.712C232.346 580.712 231.488 581.25 231.067 582.097H230.982C230.577 581.223 229.863 580.712 228.787 580.712C227.722 580.712 226.934 581.223 226.593 582.097H226.486V580.818H225.272V589ZM241.633 589.17C243.849 589.17 245.34 587.487 245.34 584.952C245.34 582.395 243.849 580.712 241.633 580.712C239.417 580.712 237.925 582.395 237.925 584.952C237.925 587.487 239.417 589.17 241.633 589.17ZM241.633 588.041C239.949 588.041 239.182 586.592 239.182 584.952C239.182 583.311 239.949 581.841 241.633 581.841C243.316 581.841 244.083 583.311 244.083 584.952C244.083 586.592 243.316 588.041 241.633 588.041ZM241.057 579.71H242.165L243.827 577.239H242.357L241.057 579.71ZM253.656 580.818H252.293L250.034 587.338H249.949L247.69 580.818H246.327L249.352 589H250.631L253.656 580.818ZM258.453 589.17C260.115 589.17 261.329 588.339 261.713 587.104L260.498 586.763C260.179 587.615 259.438 588.041 258.453 588.041C256.978 588.041 255.96 587.088 255.902 585.335H261.841V584.803C261.841 581.756 260.03 580.712 258.325 580.712C256.109 580.712 254.639 582.459 254.639 584.973C254.639 587.487 256.088 589.17 258.453 589.17ZM255.902 584.249C255.987 582.975 256.887 581.841 258.325 581.841C259.689 581.841 260.562 582.864 260.562 584.249H255.902ZM265.01 578.091H263.753V589H265.01V578.091ZM268.229 589.085C268.756 589.085 269.188 588.654 269.188 588.126C269.188 587.599 268.756 587.168 268.229 587.168C267.702 587.168 267.27 587.599 267.27 588.126C267.27 588.654 267.702 589.085 268.229 589.085Z" fill="#AEAEB3"/>
<rect x="148" y="676" width="80" height="56" fill="#29292E"/>
<path d="M188.736 703.545C188.736 700.056 186.648 697.942 183.824 697.942C180.991 697.942 178.908 700.056 178.908 703.545C178.908 707.029 180.991 709.149 183.824 709.149C186.648 709.149 188.736 707.034 188.736 703.545ZM187.106 703.545C187.106 706.203 185.699 707.647 183.824 707.647C181.944 707.647 180.543 706.203 180.543 703.545C180.543 700.887 181.944 699.444 183.824 699.444C185.699 699.444 187.106 700.887 187.106 703.545ZM190.66 709H192.253V706.097L193.046 705.303L195.827 709H197.782L194.245 704.328L197.558 700.818H195.651L192.391 704.281H192.253V698.091H190.66V709Z" fill="white"/>
<rect opacity="0.24" x="120" y="799" width="135" height="5" rx="2.5" fill="white"/>
<path d="M78 0H297V0C294.894 0.602689 293.418 2.49525 293.345 4.68446L293.317 5.5618V5.5618C293.317 19.0587 282.375 30 268.878 30H106.122C92.6249 30 81.6835 19.0587 81.6835 5.5618V5.5618L81.6545 4.68447C81.5823 2.49525 80.1059 0.602689 78 0V0Z" fill="#09090A"/>
<path opacity="0.35" d="M338.667 19.8334H355.333C356.53 19.8334 357.5 20.8034 357.5 22V28C357.5 29.1967 356.53 30.1667 355.333 30.1667H338.667C337.47 30.1667 336.5 29.1967 336.5 28V22C336.5 20.8034 337.47 19.8334 338.667 19.8334Z" stroke="white"/>
<path opacity="0.4" d="M359 23V27C359.805 26.6612 360.328 25.8731 360.328 25C360.328 24.1269 359.805 23.3388 359 23" fill="white"/>
<path d="M338 22.6667C338 21.9303 338.597 21.3334 339.333 21.3334H354.667C355.403 21.3334 356 21.9303 356 22.6667V27.3334C356 28.0698 355.403 28.6667 354.667 28.6667H339.333C338.597 28.6667 338 28.0698 338 27.3334V22.6667Z" fill="white"/>
<path fill-rule="evenodd" clip-rule="evenodd" d="M323.33 21.608C325.546 21.6081 327.678 22.4596 329.283 23.9863C329.404 24.1042 329.598 24.1027 329.717 23.983L330.873 22.8163C330.933 22.7556 330.967 22.6734 330.966 22.5878C330.966 22.5022 330.931 22.4204 330.87 22.3603C326.655 18.3208 320.005 18.3208 315.79 22.3603C315.729 22.4203 315.694 22.5021 315.694 22.5877C315.693 22.6733 315.727 22.7556 315.787 22.8163L316.943 23.983C317.062 24.1029 317.256 24.1044 317.377 23.9863C318.983 22.4595 321.114 21.608 323.33 21.608ZM323.33 25.4037C324.548 25.4036 325.722 25.8561 326.624 26.6733C326.747 26.7893 326.939 26.7868 327.058 26.6677L328.212 25.501C328.273 25.4398 328.307 25.3568 328.306 25.2705C328.305 25.1843 328.27 25.102 328.208 25.042C325.46 22.4856 321.204 22.4856 318.455 25.042C318.393 25.102 318.358 25.1843 318.357 25.2706C318.356 25.3569 318.39 25.4399 318.451 25.501L319.605 26.6677C319.724 26.7868 319.917 26.7893 320.039 26.6733C320.941 25.8567 322.114 25.4042 323.33 25.4037ZM325.643 27.9575C325.645 28.044 325.611 28.1274 325.549 28.188L323.552 30.2037C323.494 30.2629 323.414 30.2963 323.33 30.2963C323.247 30.2963 323.167 30.2629 323.109 30.2037L321.111 28.188C321.049 28.1274 321.015 28.0439 321.017 27.9574C321.019 27.8709 321.057 27.789 321.121 27.731C322.396 26.6521 324.265 26.6521 325.54 27.731C325.604 27.7891 325.642 27.871 325.643 27.9575Z" fill="white"/>
<path fill-rule="evenodd" clip-rule="evenodd" d="M309.667 19.6666H308.667C308.114 19.6666 307.667 20.1143 307.667 20.6666V29.3333C307.667 29.8856 308.114 30.3333 308.667 30.3333H309.667C310.219 30.3333 310.667 29.8856 310.667 29.3333V20.6666C310.667 20.1143 310.219 19.6666 309.667 19.6666ZM304 22H305C305.552 22 306 22.4477 306 23V29.3333C306 29.8856 305.552 30.3333 305 30.3333H304C303.448 30.3333 303 29.8856 303 29.3333V23C303 22.4477 303.448 22 304 22ZM300.333 24.3333H299.333C298.781 24.3333 298.333 24.781 298.333 25.3333V29.3333C298.333 29.8856 298.781 30.3333 299.333 30.3333H300.333C300.886 30.3333 301.333 29.8856 301.333 29.3333V25.3333C301.333 24.781 300.886 24.3333 300.333 24.3333ZM295.667 26.3333H294.667C294.114 26.3333 293.667 26.781 293.667 27.3333V29.3333C293.667 29.8856 294.114 30.3333 294.667 30.3333H295.667C296.219 30.3333 296.667 29.8856 296.667 29.3333V27.3333C296.667 26.781 296.219 26.3333 295.667 26.3333Z" fill="white"/>
<path d="M37.3208 30.2563C40.0088 30.2563 41.6055 28.1543 41.6055 24.5947C41.6055 23.2544 41.3491 22.1265 40.8584 21.2549C40.1479 19.8999 38.9248 19.1675 37.3794 19.1675C35.0796 19.1675 33.4536 20.7129 33.4536 22.8809C33.4536 24.917 34.9185 26.3965 36.9326 26.3965C38.1704 26.3965 39.1738 25.8179 39.6719 24.8145H39.6938C39.6938 24.8145 39.7231 24.8145 39.7305 24.8145C39.7451 24.8145 39.7964 24.8145 39.7964 24.8145C39.7964 27.2314 38.8809 28.6743 37.3354 28.6743C36.4272 28.6743 35.7241 28.1763 35.4824 27.3779H33.6001C33.915 29.1138 35.3872 30.2563 37.3208 30.2563ZM37.3867 24.895C36.1709 24.895 35.3066 24.0308 35.3066 22.8223C35.3066 21.6431 36.2148 20.7422 37.394 20.7422C38.5732 20.7422 39.4814 21.6577 39.4814 22.8516C39.4814 24.0308 38.5952 24.895 37.3867 24.895Z" fill="white"/>
<path d="M44.6966 30.1538C45.3924 30.1538 45.8685 29.6558 45.8685 28.9966C45.8685 28.3301 45.3924 27.8394 44.6966 27.8394C44.0081 27.8394 43.5247 28.3301 43.5247 28.9966C43.5247 29.6558 44.0081 30.1538 44.6966 30.1538ZM44.6966 24.6606C45.3924 24.6606 45.8685 24.1699 45.8685 23.5107C45.8685 22.8442 45.3924 22.3535 44.6966 22.3535C44.0081 22.3535 43.5247 22.8442 43.5247 23.5107C43.5247 24.1699 44.0081 24.6606 44.6966 24.6606Z" fill="white"/>
<path d="M52.7242 30H54.5333V28.0298H55.9615V26.4331H54.5333V19.4312H51.8673C49.9996 22.2437 48.5128 24.5947 47.5606 26.3452V28.0298H52.7242V30ZM49.3111 26.3672C50.5416 24.1992 51.6402 22.4634 52.651 20.9692H52.7535V26.4771H49.3111V26.3672Z" fill="white"/>
<path d="M59.9901 30H61.8798V19.4312H59.9975L57.2362 21.3647V23.1812L59.8656 21.3354H59.9901V30Z" fill="white"/>
<path opacity="0.04" fill-rule="evenodd" clip-rule="evenodd" d="M3.94011 97.9213L142.374 166.231L92.098 191.067L0 145.623V95.9998L3.94011 97.9213ZM374.997 281.044V330.667L232.992 260.628L283.227 235.792L374.997 281.044ZM375 145.669V96.0461L371.101 97.9196L187.685 188.567H187.644L137.408 213.451L0 281.328V331L187.685 238.238L237.92 213.403L375 145.669Z" fill="white"/>
<defs>
<clipPath id="clip0_22_582">
<rect width="80" height="80" fill="white" transform="translate(147 352)"/>
</clipPath>
</defs>
</svg>
