<svg width="375" height="812" viewBox="0 0 375 812" fill="none" xmlns="http://www.w3.org/2000/svg">
<g clip-path="url(#clip0_36_607)">
<rect width="375" height="812" fill="white"/>
<rect width="375" height="325" fill="#1B1B1F"/>
<path d="M27.13 127.42H43.18V130.69H30.97V135.85H41.86V139.12H30.97V144.73H43.36V148H27.13V127.42ZM53.0798 148.36C50.8998 148.36 49.2098 147.91 48.0098 147.01C46.8298 146.11 46.2398 144.94 46.2398 143.5C46.2398 143.32 46.2398 143.2 46.2398 143.14C46.2598 143.08 46.2698 143.04 46.2698 143.02H49.7798V143.26C49.7998 144.04 50.1298 144.62 50.7698 145C51.4298 145.36 52.2498 145.54 53.2298 145.54C54.1098 145.54 54.8598 145.4 55.4798 145.12C56.0998 144.82 56.4098 144.38 56.4098 143.8C56.4098 143.34 56.2398 142.97 55.8998 142.69C55.5598 142.39 55.1398 142.16 54.6398 142C54.1398 141.82 53.4298 141.62 52.5098 141.4C51.2698 141.1 50.2498 140.8 49.4498 140.5C48.6698 140.2 47.9998 139.73 47.4398 139.09C46.8798 138.45 46.5998 137.61 46.5998 136.57C46.5998 135.07 47.2198 133.91 48.4598 133.09C49.6998 132.27 51.3098 131.86 53.2898 131.86C54.5098 131.86 55.5998 132.04 56.5598 132.4C57.5198 132.76 58.2598 133.27 58.7798 133.93C59.3198 134.57 59.5898 135.31 59.5898 136.15L59.5598 136.81H56.0498V136.69C56.0498 136.07 55.7898 135.59 55.2698 135.25C54.7698 134.89 54.0398 134.71 53.0798 134.71C52.1398 134.71 51.4298 134.86 50.9498 135.16C50.4698 135.44 50.2298 135.81 50.2298 136.27C50.2298 136.83 50.5198 137.25 51.0998 137.53C51.6998 137.79 52.6098 138.05 53.8298 138.31C55.1498 138.61 56.2098 138.92 57.0098 139.24C57.8298 139.54 58.5398 140.02 59.1398 140.68C59.7398 141.34 60.0398 142.23 60.0398 143.35C60.0398 145.09 59.4098 146.36 58.1498 147.16C56.9098 147.96 55.2198 148.36 53.0798 148.36ZM69.553 148.36C67.073 148.36 65.233 147.69 64.033 146.35C62.833 145.01 62.233 142.93 62.233 140.11C62.233 137.29 62.833 135.21 64.033 133.87C65.253 132.53 67.093 131.86 69.553 131.86C71.693 131.86 73.343 132.39 74.503 133.45C75.663 134.51 76.243 136.07 76.243 138.13H72.583C72.583 137.01 72.333 136.17 71.833 135.61C71.333 135.05 70.553 134.77 69.493 134.77C68.253 134.77 67.343 135.2 66.763 136.06C66.183 136.9 65.893 138.2 65.893 139.96V140.32C65.893 142.08 66.183 143.38 66.763 144.22C67.363 145.04 68.323 145.45 69.643 145.45C70.663 145.45 71.433 145.16 71.953 144.58C72.493 144 72.763 143.17 72.763 142.09H76.243C76.243 144.07 75.653 145.61 74.473 146.71C73.313 147.81 71.673 148.36 69.553 148.36ZM86.1163 148.36C83.5163 148.36 81.5663 147.69 80.2663 146.35C78.9863 145.01 78.3463 142.93 78.3463 140.11C78.3463 137.29 78.9863 135.21 80.2663 133.87C81.5663 132.53 83.5163 131.86 86.1163 131.86C88.7163 131.86 90.6563 132.53 91.9363 133.87C93.2363 135.21 93.8863 137.29 93.8863 140.11C93.8863 142.93 93.2363 145.01 91.9363 146.35C90.6563 147.69 88.7163 148.36 86.1163 148.36ZM86.1163 145.42C87.5363 145.42 88.5663 145.01 89.2063 144.19C89.8463 143.35 90.1663 142.06 90.1663 140.32V139.9C90.1663 138.16 89.8463 136.88 89.2063 136.06C88.5663 135.22 87.5363 134.8 86.1163 134.8C84.6763 134.8 83.6363 135.22 82.9963 136.06C82.3763 136.88 82.0663 138.16 82.0663 139.9V140.32C82.0663 142.06 82.3763 143.35 82.9963 144.19C83.6363 145.01 84.6763 145.42 86.1163 145.42ZM97.0902 126.31H100.69V148H97.0902V126.31ZM104.854 126.31H108.454V134.02H108.664C109.184 133.36 109.844 132.84 110.644 132.46C111.444 132.06 112.364 131.86 113.404 131.86C115.004 131.86 116.254 132.3 117.154 133.18C118.054 134.04 118.504 135.43 118.504 137.35V148H114.904V137.98C114.904 136.9 114.654 136.13 114.154 135.67C113.674 135.21 112.954 134.98 111.994 134.98C110.994 134.98 110.154 135.34 109.474 136.06C108.794 136.78 108.454 137.7 108.454 138.82V148H104.854V126.31ZM126.448 148.36C125.168 148.36 124.008 148.05 122.968 147.43C121.948 146.79 121.438 145.62 121.438 143.92C121.438 141.9 122.298 140.48 124.018 139.66C125.738 138.84 128.178 138.43 131.338 138.43V137.11C131.338 136.35 131.138 135.76 130.738 135.34C130.358 134.92 129.658 134.71 128.638 134.71C127.578 134.71 126.828 134.88 126.388 135.22C125.948 135.56 125.728 135.98 125.728 136.48V136.9H122.248C122.228 136.78 122.218 136.56 122.218 136.24C122.218 134.88 122.798 133.81 123.958 133.03C125.138 132.25 126.698 131.86 128.638 131.86C130.738 131.86 132.308 132.29 133.348 133.15C134.408 134.01 134.938 135.24 134.938 136.84V144.37C134.938 144.73 135.038 145 135.238 145.18C135.438 145.34 135.688 145.42 135.988 145.42H136.948V147.88C136.308 148.18 135.558 148.33 134.698 148.33C133.918 148.33 133.268 148.14 132.748 147.76C132.228 147.38 131.878 146.86 131.698 146.2H131.488C130.308 147.64 128.628 148.36 126.448 148.36ZM127.528 145.48C128.708 145.48 129.638 145.14 130.318 144.46C130.998 143.78 131.338 142.86 131.338 141.7V140.98C129.398 140.98 127.878 141.17 126.778 141.55C125.678 141.91 125.128 142.58 125.128 143.56C125.128 144.84 125.928 145.48 127.528 145.48ZM152.637 148.36C149.237 148.36 147.537 146.53 147.537 142.87V132.22H151.137V142.24C151.137 143.32 151.377 144.09 151.857 144.55C152.357 145.01 153.087 145.24 154.047 145.24C155.047 145.24 155.887 144.88 156.567 144.16C157.247 143.44 157.587 142.52 157.587 141.4V132.22H161.187V148H158.217L157.917 145.9H157.707C157.127 146.68 156.407 147.29 155.547 147.73C154.707 148.15 153.737 148.36 152.637 148.36ZM165.381 132.22H168.351L168.651 134.32H168.861C169.381 133.56 170.021 132.96 170.781 132.52C171.561 132.08 172.451 131.86 173.451 131.86C175.471 131.86 176.841 132.68 177.561 134.32H177.801C178.321 133.58 178.991 132.99 179.811 132.55C180.631 132.09 181.541 131.86 182.541 131.86C184.041 131.86 185.221 132.28 186.081 133.12C186.941 133.96 187.371 135.3 187.371 137.14V148H183.771V137.86C183.771 135.94 182.941 134.98 181.281 134.98C180.401 134.98 179.661 135.34 179.061 136.06C178.481 136.78 178.191 137.7 178.191 138.82V148H174.591V137.86C174.591 135.94 173.761 134.98 172.101 134.98C171.221 134.98 170.481 135.34 169.881 136.06C169.281 136.78 168.981 137.7 168.981 138.82V148H165.381V132.22ZM195.325 148.36C194.045 148.36 192.885 148.05 191.845 147.43C190.825 146.79 190.315 145.62 190.315 143.92C190.315 141.9 191.175 140.48 192.895 139.66C194.615 138.84 197.055 138.43 200.215 138.43V137.11C200.215 136.35 200.015 135.76 199.615 135.34C199.235 134.92 198.535 134.71 197.515 134.71C196.455 134.71 195.705 134.88 195.265 135.22C194.825 135.56 194.605 135.98 194.605 136.48V136.9H191.125C191.105 136.78 191.095 136.56 191.095 136.24C191.095 134.88 191.675 133.81 192.835 133.03C194.015 132.25 195.575 131.86 197.515 131.86C199.615 131.86 201.185 132.29 202.225 133.15C203.285 134.01 203.815 135.24 203.815 136.84V144.37C203.815 144.73 203.915 145 204.115 145.18C204.315 145.34 204.565 145.42 204.865 145.42H205.825V147.88C205.185 148.18 204.435 148.33 203.575 148.33C202.795 148.33 202.145 148.14 201.625 147.76C201.105 147.38 200.755 146.86 200.575 146.2H200.365C199.185 147.64 197.505 148.36 195.325 148.36ZM196.405 145.48C197.585 145.48 198.515 145.14 199.195 144.46C199.875 143.78 200.215 142.86 200.215 141.7V140.98C198.275 140.98 196.755 141.17 195.655 141.55C194.555 141.91 194.005 142.58 194.005 143.56C194.005 144.84 194.805 145.48 196.405 145.48ZM32.38 182.36C30.38 182.36 28.83 181.68 27.73 180.32C26.63 178.96 26.08 176.88 26.08 174.08C26.08 171.36 26.63 169.31 27.73 167.93C28.83 166.55 30.3 165.86 32.14 165.86C34.34 165.86 35.92 166.59 36.88 168.05H37.06V160.31H40.66V182H37.69L37.39 179.9H37.21C36.69 180.7 36.01 181.31 35.17 181.73C34.33 182.15 33.4 182.36 32.38 182.36ZM33.46 179.27C34.7 179.27 35.61 178.86 36.19 178.04C36.77 177.2 37.06 175.96 37.06 174.32V173.96C37.06 170.62 35.86 168.95 33.46 168.95C32.14 168.95 31.2 169.35 30.64 170.15C30.08 170.93 29.8 172.19 29.8 173.93V174.32C29.8 176.04 30.08 177.3 30.64 178.1C31.2 178.88 32.14 179.27 33.46 179.27ZM48.6939 182.36C47.4139 182.36 46.2539 182.05 45.2139 181.43C44.1939 180.79 43.6839 179.62 43.6839 177.92C43.6839 175.9 44.5439 174.48 46.2639 173.66C47.9839 172.84 50.4239 172.43 53.5839 172.43V171.11C53.5839 170.35 53.3839 169.76 52.9839 169.34C52.6039 168.92 51.9039 168.71 50.8839 168.71C49.8239 168.71 49.0739 168.88 48.6339 169.22C48.1939 169.56 47.9739 169.98 47.9739 170.48V170.9H44.4939C44.4739 170.78 44.4639 170.56 44.4639 170.24C44.4639 168.88 45.0439 167.81 46.2039 167.03C47.3839 166.25 48.9439 165.86 50.8839 165.86C52.9839 165.86 54.5539 166.29 55.5939 167.15C56.6539 168.01 57.1839 169.24 57.1839 170.84V178.37C57.1839 178.73 57.2839 179 57.4839 179.18C57.6839 179.34 57.9339 179.42 58.2339 179.42H59.1939V181.88C58.5539 182.18 57.8039 182.33 56.9439 182.33C56.1639 182.33 55.5139 182.14 54.9939 181.76C54.4739 181.38 54.1239 180.86 53.9439 180.2H53.7339C52.5539 181.64 50.8739 182.36 48.6939 182.36ZM49.7739 179.48C50.9539 179.48 51.8839 179.14 52.5639 178.46C53.2439 177.78 53.5839 176.86 53.5839 175.7V174.98C51.6439 174.98 50.1239 175.17 49.0239 175.55C47.9239 175.91 47.3739 176.58 47.3739 177.56C47.3739 178.84 48.1739 179.48 49.7739 179.48ZM65.5138 182.36C64.1738 182.36 63.2038 181.99 62.6038 181.25C62.0238 180.49 61.7338 179.55 61.7338 178.43V169.16H59.8138V166.22H61.7938L62.4538 161.81H65.3338V166.22H68.0338V169.16H65.3338V178.07C65.3338 178.97 65.7638 179.42 66.6238 179.42H68.0338V181.88C67.7138 182 67.3138 182.11 66.8338 182.21C66.3538 182.31 65.9138 182.36 65.5138 182.36ZM74.7974 182.36C73.5174 182.36 72.3574 182.05 71.3174 181.43C70.2974 180.79 69.7874 179.62 69.7874 177.92C69.7874 175.9 70.6474 174.48 72.3674 173.66C74.0874 172.84 76.5274 172.43 79.6874 172.43V171.11C79.6874 170.35 79.4874 169.76 79.0874 169.34C78.7074 168.92 78.0074 168.71 76.9874 168.71C75.9274 168.71 75.1774 168.88 74.7374 169.22C74.2974 169.56 74.0774 169.98 74.0774 170.48V170.9H70.5974C70.5774 170.78 70.5674 170.56 70.5674 170.24C70.5674 168.88 71.1474 167.81 72.3074 167.03C73.4874 166.25 75.0474 165.86 76.9874 165.86C79.0874 165.86 80.6574 166.29 81.6974 167.15C82.7574 168.01 83.2874 169.24 83.2874 170.84V178.37C83.2874 178.73 83.3874 179 83.5874 179.18C83.7874 179.34 84.0374 179.42 84.3374 179.42H85.2974V181.88C84.6574 182.18 83.9074 182.33 83.0474 182.33C82.2674 182.33 81.6174 182.14 81.0974 181.76C80.5774 181.38 80.2274 180.86 80.0474 180.2H79.8374C78.6574 181.64 76.9774 182.36 74.7974 182.36ZM75.8774 179.48C77.0574 179.48 77.9874 179.14 78.6674 178.46C79.3474 177.78 79.6874 176.86 79.6874 175.7V174.98C77.7474 174.98 76.2274 175.17 75.1274 175.55C74.0274 175.91 73.4774 176.58 73.4774 177.56C73.4774 178.84 74.2774 179.48 75.8774 179.48ZM101.257 182.36C99.257 182.36 97.707 181.68 96.607 180.32C95.507 178.96 94.957 176.88 94.957 174.08C94.957 171.36 95.507 169.31 96.607 167.93C97.707 166.55 99.177 165.86 101.017 165.86C103.217 165.86 104.797 166.59 105.757 168.05H105.937V160.31H109.537V182H106.567L106.267 179.9H106.087C105.567 180.7 104.887 181.31 104.047 181.73C103.207 182.15 102.277 182.36 101.257 182.36ZM102.337 179.27C103.577 179.27 104.487 178.86 105.067 178.04C105.647 177.2 105.937 175.96 105.937 174.32V173.96C105.937 170.62 104.737 168.95 102.337 168.95C101.017 168.95 100.077 169.35 99.517 170.15C98.957 170.93 98.677 172.19 98.677 173.93V174.32C98.677 176.04 98.957 177.3 99.517 178.1C100.077 178.88 101.017 179.27 102.337 179.27ZM120.301 182.36C117.741 182.36 115.841 181.69 114.601 180.35C113.361 179.01 112.741 176.93 112.741 174.11C112.741 171.29 113.361 169.21 114.601 167.87C115.861 166.53 117.761 165.86 120.301 165.86C122.621 165.86 124.351 166.51 125.491 167.81C126.651 169.11 127.231 171.14 127.231 173.9V174.98H116.401C116.461 176.54 116.791 177.69 117.391 178.43C118.011 179.15 118.991 179.51 120.331 179.51C121.331 179.51 122.141 179.26 122.761 178.76C123.381 178.24 123.691 177.48 123.691 176.48H127.231C127.231 178.42 126.591 179.89 125.311 180.89C124.031 181.87 122.361 182.36 120.301 182.36ZM123.481 172.43C123.481 169.95 122.421 168.71 120.301 168.71C119.101 168.71 118.191 169.02 117.571 169.64C116.971 170.24 116.601 171.17 116.461 172.43H123.481ZM138.75 160.31H142.29V163.85H138.75V160.31ZM138.75 166.22H142.35V182H138.75V166.22ZM146.514 166.22H149.484L149.784 168.32H149.994C150.574 167.54 151.284 166.94 152.124 166.52C152.984 166.08 153.964 165.86 155.064 165.86C156.664 165.86 157.914 166.3 158.814 167.18C159.714 168.04 160.164 169.43 160.164 171.35V182H156.564V171.98C156.564 170.9 156.314 170.13 155.814 169.67C155.334 169.21 154.614 168.98 153.654 168.98C152.654 168.98 151.814 169.34 151.134 170.06C150.454 170.78 150.114 171.7 150.114 172.82V182H146.514V166.22ZM164.268 166.22H167.868V182H164.268V166.22ZM167.178 160.31H170.808L170.838 160.4L167.598 164.27H164.748L167.178 160.31ZM178.362 182.36C175.882 182.36 174.042 181.69 172.842 180.35C171.642 179.01 171.042 176.93 171.042 174.11C171.042 171.29 171.642 169.21 172.842 167.87C174.062 166.53 175.902 165.86 178.362 165.86C180.502 165.86 182.152 166.39 183.312 167.45C184.472 168.51 185.052 170.07 185.052 172.13H181.392C181.392 171.01 181.142 170.17 180.642 169.61C180.142 169.05 179.362 168.77 178.302 168.77C177.062 168.77 176.152 169.2 175.572 170.06C174.992 170.9 174.702 172.2 174.702 173.96V174.32C174.702 176.08 174.992 177.38 175.572 178.22C176.172 179.04 177.132 179.45 178.452 179.45C179.472 179.45 180.242 179.16 180.762 178.58C181.302 178 181.572 177.17 181.572 176.09H185.052C185.052 178.07 184.462 179.61 183.282 180.71C182.122 181.81 180.482 182.36 178.362 182.36ZM188.145 160.31H191.685V163.85H188.145V160.31ZM188.145 166.22H191.745V182H188.145V166.22ZM202.689 182.36C200.089 182.36 198.139 181.69 196.839 180.35C195.559 179.01 194.919 176.93 194.919 174.11C194.919 171.29 195.559 169.21 196.839 167.87C198.139 166.53 200.089 165.86 202.689 165.86C205.289 165.86 207.229 166.53 208.509 167.87C209.809 169.21 210.459 171.29 210.459 174.11C210.459 176.93 209.809 179.01 208.509 180.35C207.229 181.69 205.289 182.36 202.689 182.36ZM202.689 179.42C204.109 179.42 205.139 179.01 205.779 178.19C206.419 177.35 206.739 176.06 206.739 174.32V173.9C206.739 172.16 206.419 170.88 205.779 170.06C205.139 169.22 204.109 168.8 202.689 168.8C201.249 168.8 200.209 169.22 199.569 170.06C198.949 170.88 198.639 172.16 198.639 173.9V174.32C198.639 176.06 198.949 177.35 199.569 178.19C200.209 179.01 201.249 179.42 202.689 179.42ZM228.582 182.36C226.022 182.36 224.122 181.69 222.882 180.35C221.642 179.01 221.022 176.93 221.022 174.11C221.022 171.29 221.642 169.21 222.882 167.87C224.142 166.53 226.042 165.86 228.582 165.86C230.902 165.86 232.632 166.51 233.772 167.81C234.932 169.11 235.512 171.14 235.512 173.9V174.98H224.682C224.742 176.54 225.072 177.69 225.672 178.43C226.292 179.15 227.272 179.51 228.612 179.51C229.612 179.51 230.422 179.26 231.042 178.76C231.662 178.24 231.972 177.48 231.972 176.48H235.512C235.512 178.42 234.872 179.89 233.592 180.89C232.312 181.87 230.642 182.36 228.582 182.36ZM231.762 172.43C231.762 169.95 230.702 168.71 228.582 168.71C227.382 168.71 226.472 169.02 225.852 169.64C225.252 170.24 224.882 171.17 224.742 172.43H231.762ZM27.55 203.16H25.27V200.22H27.55V198.18C27.55 197 27.85 196.02 28.45 195.24C29.07 194.46 30.09 194.07 31.51 194.07C31.93 194.07 32.37 194.12 32.83 194.22C33.31 194.3 33.7 194.4 34 194.52V197.01H32.5C31.6 197.01 31.15 197.46 31.15 198.36V200.22H34V203.16H31.15V216H27.55V203.16ZM36.52 194.31H40.12V197.76H36.52V194.31ZM36.52 200.22H40.12V216H36.52V200.22ZM44.2973 200.22H47.2673L47.5673 202.32H47.7773C48.2973 201.56 48.9373 200.96 49.6973 200.52C50.4773 200.08 51.3673 199.86 52.3673 199.86C54.3873 199.86 55.7573 200.68 56.4773 202.32H56.7173C57.2373 201.58 57.9073 200.99 58.7273 200.55C59.5473 200.09 60.4573 199.86 61.4573 199.86C62.9573 199.86 64.1373 200.28 64.9973 201.12C65.8573 201.96 66.2873 203.3 66.2873 205.14V216H62.6873V205.86C62.6873 203.94 61.8573 202.98 60.1973 202.98C59.3173 202.98 58.5773 203.34 57.9773 204.06C57.3973 204.78 57.1073 205.7 57.1073 206.82V216H53.5073V205.86C53.5073 203.94 52.6773 202.98 51.0173 202.98C50.1373 202.98 49.3973 203.34 48.7973 204.06C48.1973 204.78 47.8973 205.7 47.8973 206.82V216H44.2973V200.22ZM84.0304 216.36C82.0304 216.36 80.4804 215.68 79.3804 214.32C78.2804 212.96 77.7304 210.88 77.7304 208.08C77.7304 205.36 78.2804 203.31 79.3804 201.93C80.4804 200.55 81.9504 199.86 83.7904 199.86C85.9904 199.86 87.5704 200.59 88.5304 202.05H88.7104V194.31H92.3104V216H89.3404L89.0404 213.9H88.8604C88.3404 214.7 87.6604 215.31 86.8204 215.73C85.9804 216.15 85.0504 216.36 84.0304 216.36ZM85.1104 213.27C86.3504 213.27 87.2604 212.86 87.8404 212.04C88.4204 211.2 88.7104 209.96 88.7104 208.32V207.96C88.7104 204.62 87.5104 202.95 85.1104 202.95C83.7904 202.95 82.8504 203.35 82.2904 204.15C81.7304 204.93 81.4504 206.19 81.4504 207.93V208.32C81.4504 210.04 81.7304 211.3 82.2904 212.1C82.8504 212.88 83.7904 213.27 85.1104 213.27ZM103.284 216.36C100.684 216.36 98.7343 215.69 97.4343 214.35C96.1543 213.01 95.5143 210.93 95.5143 208.11C95.5143 205.29 96.1543 203.21 97.4343 201.87C98.7343 200.53 100.684 199.86 103.284 199.86C105.884 199.86 107.824 200.53 109.104 201.87C110.404 203.21 111.054 205.29 111.054 208.11C111.054 210.93 110.404 213.01 109.104 214.35C107.824 215.69 105.884 216.36 103.284 216.36ZM103.284 213.42C104.704 213.42 105.734 213.01 106.374 212.19C107.014 211.35 107.334 210.06 107.334 208.32V207.9C107.334 206.16 107.014 204.88 106.374 204.06C105.734 203.22 104.704 202.8 103.284 202.8C101.844 202.8 100.804 203.22 100.164 204.06C99.5443 204.88 99.2343 206.16 99.2343 207.9V208.32C99.2343 210.06 99.5443 211.35 100.164 212.19C100.804 213.01 101.844 213.42 103.284 213.42ZM126.448 216.36C125.168 216.36 124.008 216.05 122.968 215.43C121.948 214.79 121.438 213.62 121.438 211.92C121.438 209.9 122.298 208.48 124.018 207.66C125.738 206.84 128.178 206.43 131.338 206.43V205.11C131.338 204.35 131.138 203.76 130.738 203.34C130.358 202.92 129.658 202.71 128.638 202.71C127.578 202.71 126.828 202.88 126.388 203.22C125.948 203.56 125.728 203.98 125.728 204.48V204.9H122.248C122.228 204.78 122.218 204.56 122.218 204.24C122.218 202.88 122.798 201.81 123.958 201.03C125.138 200.25 126.698 199.86 128.638 199.86C130.738 199.86 132.308 200.29 133.348 201.15C134.408 202.01 134.938 203.24 134.938 204.84V212.37C134.938 212.73 135.038 213 135.238 213.18C135.438 213.34 135.688 213.42 135.988 213.42H136.948V215.88C136.308 216.18 135.558 216.33 134.698 216.33C133.918 216.33 133.268 216.14 132.748 215.76C132.228 215.38 131.878 214.86 131.698 214.2H131.488C130.308 215.64 128.628 216.36 126.448 216.36ZM127.528 213.48C128.708 213.48 129.638 213.14 130.318 212.46C130.998 211.78 131.338 210.86 131.338 209.7V208.98C129.398 208.98 127.878 209.17 126.778 209.55C125.678 209.91 125.128 210.58 125.128 211.56C125.128 212.84 125.928 213.48 127.528 213.48ZM139.278 194.31H142.878V216H139.278V194.31ZM152.051 216.36C148.651 216.36 146.951 214.53 146.951 210.87V200.22H150.551V210.24C150.551 211.32 150.791 212.09 151.271 212.55C151.771 213.01 152.501 213.24 153.461 213.24C154.461 213.24 155.301 212.88 155.981 212.16C156.661 211.44 157.001 210.52 157.001 209.4V200.22H160.601V216H157.631L157.331 213.9H157.121C156.541 214.68 155.821 215.29 154.961 215.73C154.121 216.15 153.151 216.36 152.051 216.36ZM167.405 221.46C166.285 221.46 165.325 221.13 164.525 220.47C163.745 219.83 163.355 218.93 163.355 217.77C163.355 216.33 164.175 215.24 165.815 214.5C165.335 214.24 164.955 213.91 164.675 213.51C164.395 213.11 164.255 212.64 164.255 212.1C164.255 211.4 164.515 210.82 165.035 210.36C165.575 209.9 166.225 209.58 166.985 209.4C166.265 208.94 165.705 208.35 165.305 207.63C164.925 206.91 164.735 206.1 164.735 205.2C164.735 203.54 165.325 202.24 166.505 201.3C167.705 200.34 169.375 199.86 171.515 199.86C172.715 199.86 173.755 200.02 174.635 200.34C175.275 199.96 175.745 199.53 176.045 199.05C176.345 198.55 176.515 198.07 176.555 197.61H180.035C180.035 198.65 179.745 199.51 179.165 200.19C178.585 200.87 177.785 201.32 176.765 201.54C177.805 202.52 178.325 203.74 178.325 205.2C178.325 206.86 177.745 208.17 176.585 209.13C175.425 210.09 173.795 210.57 171.695 210.57H169.235C168.815 210.57 168.485 210.66 168.245 210.84C168.005 211.02 167.885 211.27 167.885 211.59C167.885 211.89 167.995 212.14 168.215 212.34C168.435 212.52 168.735 212.61 169.115 212.61H176.015C177.195 212.61 178.165 213 178.925 213.78C179.685 214.54 180.065 215.51 180.065 216.69C180.065 217.57 179.835 218.37 179.375 219.09C178.915 219.83 178.255 220.41 177.395 220.83C176.555 221.25 175.585 221.46 174.485 221.46H167.405ZM171.545 208.02C172.605 208.02 173.405 207.78 173.945 207.3C174.485 206.8 174.755 206.1 174.755 205.2C174.755 204.3 174.485 203.61 173.945 203.13C173.405 202.63 172.605 202.38 171.545 202.38C170.485 202.38 169.685 202.63 169.145 203.13C168.605 203.61 168.335 204.3 168.335 205.2C168.335 206.12 168.605 206.82 169.145 207.3C169.685 207.78 170.485 208.02 171.545 208.02ZM174.485 218.85C175.045 218.85 175.515 218.7 175.895 218.4C176.275 218.12 176.465 217.74 176.465 217.26C176.465 216.76 176.305 216.37 175.985 216.09C175.665 215.81 175.245 215.67 174.725 215.67H168.665C168.165 215.67 167.755 215.82 167.435 216.12C167.135 216.42 166.985 216.8 166.985 217.26C166.985 217.74 167.135 218.12 167.435 218.4C167.755 218.7 168.165 218.85 168.665 218.85H174.485ZM187.559 216.36C184.159 216.36 182.459 214.53 182.459 210.87V200.22H186.059V210.24C186.059 211.32 186.299 212.09 186.779 212.55C187.279 213.01 188.009 213.24 188.969 213.24C189.969 213.24 190.809 212.88 191.489 212.16C192.169 211.44 192.509 210.52 192.509 209.4V200.22H196.109V216H193.139L192.839 213.9H192.629C192.049 214.68 191.329 215.29 190.469 215.73C189.629 216.15 188.659 216.36 187.559 216.36ZM206.873 216.36C204.313 216.36 202.413 215.69 201.173 214.35C199.933 213.01 199.313 210.93 199.313 208.11C199.313 205.29 199.933 203.21 201.173 201.87C202.433 200.53 204.333 199.86 206.873 199.86C209.193 199.86 210.923 200.51 212.063 201.81C213.223 203.11 213.803 205.14 213.803 207.9V208.98H202.973C203.033 210.54 203.363 211.69 203.963 212.43C204.583 213.15 205.563 213.51 206.903 213.51C207.903 213.51 208.713 213.26 209.333 212.76C209.953 212.24 210.263 211.48 210.263 210.48H213.803C213.803 212.42 213.163 213.89 211.883 214.89C210.603 215.87 208.933 216.36 206.873 216.36ZM210.053 206.43C210.053 203.95 208.993 202.71 206.873 202.71C205.673 202.71 204.763 203.02 204.143 203.64C203.543 204.24 203.173 205.17 203.033 206.43H210.053ZM216.973 194.31H220.573V216H216.973V194.31Z" fill="white"/>
<rect x="214" y="557" width="161" height="48" fill="#FDEDEF"/>
<rect y="607" width="109" height="48" fill="#FDEDEF"/>
<rect x="214" y="557" width="48" height="48" fill="#DC1637"/>
<rect x="61" y="607" width="48" height="48" fill="#DC1637"/>
<path d="M26.4667 486H33.3488V484.828H28.2777V484.743L30.728 482.122C32.603 480.114 33.157 479.176 33.157 477.967C33.157 476.284 31.7934 474.942 29.8758 474.942C27.9635 474.942 26.5093 476.241 26.5093 478.159H27.7664C27.7664 476.918 28.5707 476.092 29.8331 476.092C31.0157 476.092 31.9212 476.817 31.9212 477.967C31.9212 478.974 31.3299 479.72 30.0675 481.099L26.4667 485.041V486ZM39.043 486.149C41.2216 486.149 42.7397 484.876 42.7504 483.102C42.7397 481.723 41.8182 480.551 40.641 480.332V480.268C41.6638 480.002 42.3349 479.001 42.3456 477.839C42.3349 476.178 40.9393 474.942 39.043 474.942C37.1254 474.942 35.7298 476.178 35.7405 477.839C35.7298 479.001 36.401 480.002 37.445 480.268V480.332C36.2465 480.551 35.325 481.723 35.3356 483.102C35.325 484.876 36.8431 486.149 39.043 486.149ZM39.043 484.977C37.5462 484.977 36.6247 484.21 36.6353 483.038C36.6247 481.808 37.6421 480.929 39.043 480.929C40.4226 480.929 41.44 481.808 41.4507 483.038C41.44 484.21 40.5185 484.977 39.043 484.977ZM39.043 479.8C37.8498 479.8 37.0082 479.054 37.0189 477.925C37.0082 476.817 37.8179 476.092 39.043 476.092C40.2468 476.092 41.0565 476.817 41.0672 477.925C41.0565 479.054 40.2149 479.8 39.043 479.8Z" fill="#AEAEB3"/>
<path d="M33.9754 536.149C36.0528 536.149 37.5762 534.615 37.5762 532.527C37.5762 530.412 36.106 528.862 34.1032 528.862C33.3681 528.862 32.6543 529.123 32.2069 529.48H32.143L32.5265 526.263H37.0862V525.091H31.4185L30.758 530.46L31.9938 530.609C32.4466 530.284 33.219 530.05 33.8901 530.055C35.2804 530.066 36.2978 531.121 36.2978 532.548C36.2978 533.949 35.3177 534.977 33.9754 534.977C32.8568 534.977 31.9672 534.258 31.866 533.273H30.5876C30.6675 534.935 32.1004 536.149 33.9754 536.149Z" fill="#AEAEB3"/>
<path d="M31.4371 575.091H30.1161L27.3888 576.902V578.244L30.0522 576.476H30.1161V586H31.4371V575.091ZM34.5746 586H41.4567V584.828H36.3857V584.743L38.8359 582.122C40.7109 580.114 41.2649 579.176 41.2649 577.967C41.2649 576.284 39.9013 574.942 37.9837 574.942C36.0714 574.942 34.6172 576.241 34.6172 578.159H35.8743C35.8743 576.918 36.6786 576.092 37.9411 576.092C39.1236 576.092 40.0291 576.817 40.0291 577.967C40.0291 578.974 39.4379 579.72 38.1754 581.099L34.5746 585.041V586Z" fill="#AEAEB3"/>
<path d="M31.4398 625.091H29.5595L26.8482 626.833V628.644L29.3997 627.014H29.4636V636H31.4398V625.091ZM37.997 624.942C35.6319 624.926 34.0605 626.55 34.0605 628.681C34.0659 630.737 35.5307 632.223 37.443 632.223C38.6202 632.223 39.6429 631.653 40.1703 630.716H40.2449C40.2395 633.049 39.3926 634.439 37.8851 634.439C36.9423 634.439 36.3084 633.896 36.1113 633.028H34.1671C34.3908 634.833 35.8184 636.149 37.8851 636.149C40.5005 636.149 42.1678 633.965 42.1625 630.21C42.1571 626.236 40.0904 624.952 37.997 624.942ZM38.0023 626.54C39.1689 626.54 40.0265 627.509 40.0265 628.623C40.0318 629.752 39.1316 630.721 37.981 630.721C36.8198 630.721 35.9835 629.805 35.9782 628.638C35.9782 627.467 36.8464 626.54 38.0023 626.54Z" fill="#DC1637"/>
<path d="M26.4081 686H33.2902V684.828H28.2191V684.743L30.6694 682.122C32.5444 680.114 33.0984 679.176 33.0984 677.967C33.0984 676.284 31.7348 674.942 29.8172 674.942C27.9049 674.942 26.4507 676.241 26.4507 678.159H27.7078C27.7078 676.918 28.5121 676.092 29.7745 676.092C30.9571 676.092 31.8626 676.817 31.8626 677.967C31.8626 678.974 31.2714 679.72 30.0089 681.099L26.4081 685.041V686ZM39.1123 686.149C41.3175 686.176 42.7557 684.514 42.7557 682.484C42.7557 680.375 41.195 678.862 39.3253 678.862C38.2014 678.862 37.2373 679.411 36.6407 680.311H36.5554C36.5608 677.653 37.5941 676.114 39.2827 676.114C40.4333 676.114 41.1258 676.838 41.3708 677.818H42.6705C42.4042 676.124 41.1151 674.942 39.2827 674.942C36.8271 674.942 35.3196 677.115 35.3196 680.972C35.3196 685.004 37.3225 686.128 39.1123 686.149ZM39.1123 684.977C37.7433 684.977 36.7419 683.811 36.7472 682.506C36.7525 681.201 37.8019 680.034 39.1549 680.034C40.4919 680.034 41.4773 681.131 41.4773 682.484C41.4773 683.869 40.4493 684.977 39.1123 684.977Z" fill="#AEAEB3"/>
<path d="M131.852 486.149C133.967 486.149 135.539 484.823 135.539 483.038C135.539 481.653 134.718 480.647 133.344 480.418V480.332C134.447 479.997 135.134 479.091 135.134 477.861C135.134 476.316 133.914 474.942 131.895 474.942C130.009 474.942 128.443 476.103 128.379 477.818H129.658C129.706 476.732 130.739 476.092 131.874 476.092C133.078 476.092 133.855 476.822 133.855 477.925C133.855 479.075 132.955 479.821 131.661 479.821H130.787V480.993H131.661C133.317 480.993 134.239 481.835 134.239 483.038C134.239 484.194 133.232 484.977 131.831 484.977C130.569 484.977 129.567 484.327 129.487 483.273H128.145C128.225 484.988 129.738 486.149 131.852 486.149ZM141.275 486.149C143.683 486.149 145.068 484.109 145.068 480.545C145.068 477.009 143.662 474.942 141.275 474.942C138.889 474.942 137.483 477.009 137.483 480.545C137.483 484.109 138.868 486.149 141.275 486.149ZM141.275 484.977C139.688 484.977 138.761 483.385 138.761 480.545C138.761 477.712 139.699 476.092 141.275 476.092C142.852 476.092 143.79 477.712 143.79 480.545C143.79 483.385 142.863 484.977 141.275 484.977Z" fill="#AEAEB3"/>
<path d="M133.686 536H135.07L139.928 526.327V525.091H132.94V526.263H138.565V526.348L133.686 536Z" fill="#47474D"/>
<path d="M133.166 575.091H131.845L129.118 576.902V578.244L131.781 576.476H131.845V586H133.166V575.091ZM136.048 583.763H141.183V586H142.44V583.763H143.931V582.591H142.44V575.091H140.842L136.048 582.676V583.763ZM141.183 582.591H137.475V582.506L141.098 576.774H141.183V582.591Z" fill="#47474D"/>
<path d="M133.415 625.091H132.094L129.367 626.902V628.244L132.03 626.476H132.094V636H133.415V625.091ZM139.962 636.149C142.039 636.149 143.563 634.615 143.563 632.527C143.563 630.412 142.092 628.862 140.09 628.862C139.354 628.862 138.641 629.123 138.193 629.48H138.129L138.513 626.263H143.072V625.091H137.405L136.744 630.46L137.98 630.609C138.433 630.284 139.205 630.05 139.876 630.055C141.267 630.066 142.284 631.121 142.284 632.548C142.284 633.949 141.304 634.977 139.962 634.977C138.843 634.977 137.954 634.258 137.852 633.273H136.574C136.654 634.935 138.087 636.149 139.962 636.149Z" fill="#47474D"/>
<path d="M128.467 686H135.349V684.828H130.278V684.743L132.728 682.122C134.603 680.114 135.157 679.176 135.157 677.967C135.157 676.284 133.793 674.942 131.876 674.942C129.963 674.942 128.509 676.241 128.509 678.159H129.766C129.766 676.918 130.571 676.092 131.833 676.092C133.016 676.092 133.921 676.817 133.921 677.967C133.921 678.974 133.33 679.72 132.068 681.099L128.467 685.041V686ZM141.043 686.149C143.222 686.149 144.74 684.876 144.75 683.102C144.74 681.723 143.818 680.551 142.641 680.332V680.268C143.664 680.002 144.335 679.001 144.346 677.839C144.335 676.178 142.939 674.942 141.043 674.942C139.125 674.942 137.73 676.178 137.74 677.839C137.73 679.001 138.401 680.002 139.445 680.268V680.332C138.246 680.551 137.325 681.723 137.336 683.102C137.325 684.876 138.843 686.149 141.043 686.149ZM141.043 684.977C139.546 684.977 138.625 684.21 138.635 683.038C138.625 681.808 139.642 680.929 141.043 680.929C142.423 680.929 143.44 681.808 143.451 683.038C143.44 684.21 142.519 684.977 141.043 684.977ZM141.043 679.8C139.85 679.8 139.008 679.054 139.019 677.925C139.008 676.817 139.818 676.092 141.043 676.092C142.247 676.092 143.057 676.817 143.067 677.925C143.057 679.054 142.215 679.8 141.043 679.8Z" fill="#47474D"/>
<path d="M77.4081 486H84.2902V484.828H79.2191V484.743L81.6694 482.122C83.5444 480.114 84.0984 479.176 84.0984 477.967C84.0984 476.284 82.7348 474.942 80.8172 474.942C78.9049 474.942 77.4507 476.241 77.4507 478.159H78.7078C78.7078 476.918 79.5121 476.092 80.7745 476.092C81.9571 476.092 82.8626 476.817 82.8626 477.967C82.8626 478.974 82.2714 479.72 81.0089 481.099L77.4081 485.041V486ZM89.9631 474.942C87.7472 474.915 86.3196 476.582 86.3196 478.585C86.3196 480.695 87.875 482.207 89.75 482.207C90.8793 482.207 91.8381 481.653 92.4347 480.759H92.5199C92.5199 483.443 91.4759 484.977 89.7927 484.977C88.6421 484.977 87.939 484.253 87.7046 483.251H86.4049C86.6606 484.977 87.9603 486.149 89.7927 486.149C92.2429 486.149 93.7557 483.976 93.7557 480.098C93.7557 476.092 91.7529 474.963 89.9631 474.942ZM89.9631 476.114C91.3267 476.114 92.3282 477.286 92.3282 478.564C92.3282 479.864 91.2628 481.036 89.9205 481.036C88.5782 481.036 87.5981 479.949 87.5981 478.585C87.5981 477.222 88.6208 476.114 89.9631 476.114Z" fill="#AEAEB3"/>
<path d="M85.0712 536.149C87.2765 536.176 88.7147 534.514 88.7147 532.484C88.7147 530.375 87.154 528.862 85.2843 528.862C84.1604 528.862 83.1962 529.411 82.5997 530.311H82.5144C82.5198 527.653 83.5531 526.114 85.2417 526.114C86.3923 526.114 87.0847 526.838 87.3298 527.818H88.6295C88.3631 526.124 87.0741 524.942 85.2417 524.942C82.7861 524.942 81.2786 527.115 81.2786 530.972C81.2786 535.004 83.2815 536.128 85.0712 536.149ZM85.0712 534.977C83.7023 534.977 82.7009 533.811 82.7062 532.506C82.7115 531.201 83.7609 530.034 85.1139 530.034C86.4509 530.034 87.4363 531.131 87.4363 532.484C87.4363 533.869 86.4082 534.977 85.0712 534.977Z" fill="#47474D"/>
<path d="M82.2028 575.091H80.8817L78.1545 576.902V578.244L80.8178 576.476H80.8817V586H82.2028V575.091ZM89.0263 586.149C91.141 586.149 92.7124 584.823 92.7124 583.038C92.7124 581.653 91.892 580.647 90.5178 580.418V580.332C91.6204 579.997 92.3075 579.091 92.3075 577.861C92.3075 576.316 91.0877 574.942 89.0689 574.942C87.1832 574.942 85.6172 576.103 85.5533 577.818H86.8317C86.8796 576.732 87.913 576.092 89.0476 576.092C90.2514 576.092 91.0291 576.822 91.0291 577.925C91.0291 579.075 90.1289 579.821 88.8345 579.821H87.9609V580.993H88.8345C90.4911 580.993 91.4126 581.835 91.4126 583.038C91.4126 584.194 90.4059 584.977 89.005 584.977C87.7425 584.977 86.7411 584.327 86.6612 583.273H85.3189C85.3988 584.988 86.9116 586.149 89.0263 586.149Z" fill="#47474D"/>
<path d="M77.4007 636H84.2828V634.828H79.2118V634.743L81.6621 632.122C83.5371 630.114 84.0911 629.176 84.0911 627.967C84.0911 626.284 82.7275 624.942 80.8098 624.942C78.8975 624.942 77.4434 626.241 77.4434 628.159H78.7005C78.7005 626.918 79.5048 626.092 80.7672 626.092C81.9498 626.092 82.8553 626.817 82.8553 627.967C82.8553 628.974 82.264 629.72 81.0016 631.099L77.4007 635.041V636ZM90.041 636.149C92.4487 636.149 93.8336 634.109 93.8336 630.545C93.8336 627.009 92.4274 624.942 90.041 624.942C87.6547 624.942 86.2484 627.009 86.2484 630.545C86.2484 634.109 87.6333 636.149 90.041 636.149ZM90.041 634.977C88.4537 634.977 87.5268 633.385 87.5268 630.545C87.5268 627.712 88.4643 626.092 90.041 626.092C91.6177 626.092 92.5552 627.712 92.5552 630.545C92.5552 633.385 91.6284 634.977 90.041 634.977Z" fill="white"/>
<path d="M77.3036 686H84.1857V684.828H79.1147V684.743L81.5649 682.122C83.4399 680.114 83.9939 679.176 83.9939 677.967C83.9939 676.284 82.6303 674.942 80.7127 674.942C78.8004 674.942 77.3462 676.241 77.3462 678.159H78.6033C78.6033 676.918 79.4076 676.092 80.6701 676.092C81.8526 676.092 82.7581 676.817 82.7581 677.967C82.7581 678.974 82.1669 679.72 80.9044 681.099L77.3036 685.041V686ZM86.7265 686H88.1115L92.9694 676.327V675.091H85.9808V676.263H91.6058V676.348L86.7265 686Z" fill="#47474D"/>
<path d="M188.978 475.091H187.657L184.93 476.902V478.244L187.593 476.476H187.657V486H188.978V475.091Z" fill="#AEAEB3"/>
<path d="M187.002 536.149C189.181 536.149 190.699 534.876 190.709 533.102C190.699 531.723 189.777 530.551 188.6 530.332V530.268C189.623 530.002 190.294 529.001 190.305 527.839C190.294 526.178 188.898 524.942 187.002 524.942C185.084 524.942 183.689 526.178 183.699 527.839C183.689 529.001 184.36 530.002 185.404 530.268V530.332C184.205 530.551 183.284 531.723 183.295 533.102C183.284 534.876 184.802 536.149 187.002 536.149ZM187.002 534.977C185.505 534.977 184.584 534.21 184.594 533.038C184.584 531.808 185.601 530.929 187.002 530.929C188.382 530.929 189.399 531.808 189.41 533.038C189.399 534.21 188.477 534.977 187.002 534.977ZM187.002 529.8C185.809 529.8 184.967 529.054 184.978 527.925C184.967 526.817 185.777 526.092 187.002 526.092C188.206 526.092 189.015 526.817 189.026 527.925C189.015 529.054 188.174 529.8 187.002 529.8Z" fill="#47474D"/>
<path d="M184.415 575.091H183.094L180.367 576.902V578.244L183.03 576.476H183.094V586H184.415V575.091ZM190.962 586.149C193.039 586.149 194.563 584.615 194.563 582.527C194.563 580.412 193.092 578.862 191.09 578.862C190.354 578.862 189.641 579.123 189.193 579.48H189.129L189.513 576.263H194.072V575.091H188.405L187.744 580.46L188.98 580.609C189.433 580.284 190.205 580.05 190.876 580.055C192.267 580.066 193.284 581.121 193.284 582.548C193.284 583.949 192.304 584.977 190.962 584.977C189.843 584.977 188.954 584.258 188.852 583.273H187.574C187.654 584.935 189.087 586.149 190.962 586.149Z" fill="#47474D"/>
<path d="M179.547 636H186.429V634.828H181.358V634.743L183.809 632.122C185.684 630.114 186.238 629.176 186.238 627.967C186.238 626.284 184.874 624.942 182.956 624.942C181.044 624.942 179.59 626.241 179.59 628.159H180.847C180.847 626.918 181.651 626.092 182.914 626.092C184.096 626.092 185.002 626.817 185.002 627.967C185.002 628.974 184.411 629.72 183.148 631.099L179.547 635.041V636ZM188.629 636H195.511V634.828H190.44V634.743L192.891 632.122C194.766 630.114 195.32 629.176 195.32 627.967C195.32 626.284 193.956 624.942 192.038 624.942C190.126 624.942 188.672 626.241 188.672 628.159H189.929C189.929 626.918 190.733 626.092 191.996 626.092C193.178 626.092 194.084 626.817 194.084 627.967C194.084 628.974 193.493 629.72 192.23 631.099L188.629 635.041V636Z" fill="#47474D"/>
<path d="M179.408 686H186.29V684.828H181.219V684.743L183.669 682.122C185.544 680.114 186.098 679.176 186.098 677.967C186.098 676.284 184.735 674.942 182.817 674.942C180.905 674.942 179.451 676.241 179.451 678.159H180.708C180.708 676.918 181.512 676.092 182.775 676.092C183.957 676.092 184.863 676.817 184.863 677.967C184.863 678.974 184.271 679.72 183.009 681.099L179.408 685.041V686ZM191.963 674.942C189.747 674.915 188.32 676.582 188.32 678.585C188.32 680.695 189.875 682.207 191.75 682.207C192.879 682.207 193.838 681.653 194.435 680.759H194.52C194.52 683.443 193.476 684.977 191.793 684.977C190.642 684.977 189.939 684.253 189.705 683.251H188.405C188.661 684.977 189.96 686.149 191.793 686.149C194.243 686.149 195.756 683.976 195.756 680.098C195.756 676.092 193.753 674.963 191.963 674.942ZM191.963 676.114C193.327 676.114 194.328 677.286 194.328 678.564C194.328 679.864 193.263 681.036 191.92 681.036C190.578 681.036 189.598 679.949 189.598 678.585C189.598 677.222 190.621 676.114 191.963 676.114Z" fill="#47474D"/>
<path d="M234.588 486H241.47V484.828H236.399V484.743L238.85 482.122C240.725 480.114 241.279 479.176 241.279 477.967C241.279 476.284 239.915 474.942 237.997 474.942C236.085 474.942 234.631 476.241 234.631 478.159H235.888C235.888 476.918 236.692 476.092 237.955 476.092C239.137 476.092 240.043 476.817 240.043 477.967C240.043 478.974 239.452 479.72 238.189 481.099L234.588 485.041V486Z" fill="#AEAEB3"/>
<path d="M237.922 524.942C235.706 524.915 234.279 526.582 234.279 528.585C234.279 530.695 235.834 532.207 237.709 532.207C238.838 532.207 239.797 531.653 240.394 530.759H240.479C240.479 533.443 239.435 534.977 237.752 534.977C236.601 534.977 235.898 534.253 235.664 533.251H234.364C234.62 534.977 235.919 536.149 237.752 536.149C240.202 536.149 241.715 533.976 241.715 530.098C241.715 526.092 239.712 524.963 237.922 524.942ZM237.922 526.114C239.286 526.114 240.287 527.286 240.287 528.564C240.287 529.864 239.222 531.036 237.879 531.036C236.537 531.036 235.557 529.949 235.557 528.585C235.557 527.222 236.58 526.114 237.922 526.114Z" fill="#47474D"/>
<path d="M235.298 575.091H233.977L231.25 576.902V578.244L233.913 576.476H233.977V586H235.298V575.091ZM242.058 586.149C244.263 586.176 245.701 584.514 245.701 582.484C245.701 580.375 244.14 578.862 242.271 578.862C241.147 578.862 240.183 579.411 239.586 580.311H239.501C239.506 577.653 240.539 576.114 242.228 576.114C243.379 576.114 244.071 576.838 244.316 577.818H245.616C245.349 576.124 244.06 574.942 242.228 574.942C239.772 574.942 238.265 577.115 238.265 580.972C238.265 585.004 240.268 586.128 242.058 586.149ZM242.058 584.977C240.689 584.977 239.687 583.811 239.693 582.506C239.698 581.201 240.747 580.034 242.1 580.034C243.437 580.034 244.423 581.131 244.423 582.484C244.423 583.869 243.395 584.977 242.058 584.977Z" fill="white"/>
<path d="M230.313 636H237.195V634.828H232.124V634.743L234.574 632.122C236.449 630.114 237.003 629.176 237.003 627.967C237.003 626.284 235.64 624.942 233.722 624.942C231.81 624.942 230.355 626.241 230.355 628.159H231.613C231.613 626.918 232.417 626.092 233.679 626.092C234.862 626.092 235.767 626.817 235.767 627.967C235.767 628.974 235.176 629.72 233.914 631.099L230.313 635.041V636ZM243.081 636.149C245.196 636.149 246.767 634.823 246.767 633.038C246.767 631.653 245.947 630.647 244.572 630.418V630.332C245.675 629.997 246.362 629.091 246.362 627.861C246.362 626.316 245.142 624.942 243.124 624.942C241.238 624.942 239.672 626.103 239.608 627.818H240.886C240.934 626.732 241.968 626.092 243.102 626.092C244.306 626.092 245.084 626.822 245.084 627.925C245.084 629.075 244.184 629.821 242.889 629.821H242.016V630.993H242.889C244.546 630.993 245.467 631.835 245.467 633.038C245.467 634.194 244.461 634.977 243.06 634.977C241.797 634.977 240.796 634.327 240.716 633.273H239.374C239.453 634.988 240.966 636.149 243.081 636.149Z" fill="#47474D"/>
<path d="M233.852 686.149C235.967 686.149 237.539 684.823 237.539 683.038C237.539 681.653 236.718 680.647 235.344 680.418V680.332C236.447 679.997 237.134 679.091 237.134 677.861C237.134 676.316 235.914 674.942 233.895 674.942C232.009 674.942 230.443 676.103 230.379 677.818H231.658C231.706 676.732 232.739 676.092 233.874 676.092C235.078 676.092 235.855 676.822 235.855 677.925C235.855 679.075 234.955 679.821 233.661 679.821H232.787V680.993H233.661C235.317 680.993 236.239 681.835 236.239 683.038C236.239 684.194 235.232 684.977 233.831 684.977C232.569 684.977 231.567 684.327 231.487 683.273H230.145C230.225 684.988 231.738 686.149 233.852 686.149ZM243.275 686.149C245.683 686.149 247.068 684.109 247.068 680.545C247.068 677.009 245.662 674.942 243.275 674.942C240.889 674.942 239.483 677.009 239.483 680.545C239.483 684.109 240.868 686.149 243.275 686.149ZM243.275 684.977C241.688 684.977 240.761 683.385 240.761 680.545C240.761 677.712 241.699 676.092 243.275 676.092C244.852 676.092 245.79 677.712 245.79 680.545C245.79 683.385 244.863 684.977 243.275 684.977Z" fill="#47474D"/>
<path d="M289.04 486.149C291.155 486.149 292.726 484.823 292.726 483.038C292.726 481.653 291.906 480.647 290.531 480.418V480.332C291.634 479.997 292.321 479.091 292.321 477.861C292.321 476.316 291.101 474.942 289.083 474.942C287.197 474.942 285.631 476.103 285.567 477.818H286.845C286.893 476.732 287.927 476.092 289.061 476.092C290.265 476.092 291.043 476.822 291.043 477.925C291.043 479.075 290.143 479.821 288.848 479.821H287.975V480.993H288.848C290.505 480.993 291.426 481.835 291.426 483.038C291.426 484.194 290.42 484.977 289.019 484.977C287.756 484.977 286.755 484.327 286.675 483.273H285.333C285.412 484.988 286.925 486.149 289.04 486.149Z" fill="#AEAEB3"/>
<path d="M286.291 525.091H284.97L282.242 526.902V528.244L284.906 526.476H284.97V536H286.291V525.091ZM292.986 536.149C295.394 536.149 296.779 534.109 296.779 530.545C296.779 527.009 295.373 524.942 292.986 524.942C290.6 524.942 289.194 527.009 289.194 530.545C289.194 534.109 290.579 536.149 292.986 536.149ZM292.986 534.977C291.399 534.977 290.472 533.385 290.472 530.545C290.472 527.712 291.41 526.092 292.986 526.092C294.563 526.092 295.501 527.712 295.501 530.545C295.501 533.385 294.574 534.977 292.986 534.977Z" fill="#47474D"/>
<path d="M286.901 575.091H285.021L282.31 576.833V578.644L284.861 577.014H284.925V586H286.901V575.091ZM290.071 586H292.121L296.756 576.779V575.091H289.325V576.742H294.71V576.817L290.071 586Z" fill="#DC1637"/>
<path d="M281.393 636H288.276V634.828H283.205V634.743L285.655 632.122C287.53 630.114 288.084 629.176 288.084 627.967C288.084 626.284 286.72 624.942 284.803 624.942C282.89 624.942 281.436 626.241 281.436 628.159H282.693C282.693 626.918 283.497 626.092 284.76 626.092C285.942 626.092 286.848 626.817 286.848 627.967C286.848 628.974 286.257 629.72 284.994 631.099L281.393 635.041V636ZM289.985 633.763H295.12V636H296.377V633.763H297.869V632.591H296.377V625.091H294.779L289.985 632.676V633.763ZM295.12 632.591H291.413V632.506L295.035 626.774H295.12V632.591Z" fill="#47474D"/>
<path d="M286.054 686.149C288.168 686.149 289.74 684.823 289.74 683.038C289.74 681.653 288.919 680.647 287.545 680.418V680.332C288.648 679.997 289.335 679.091 289.335 677.861C289.335 676.316 288.115 674.942 286.096 674.942C284.211 674.942 282.645 676.103 282.581 677.818H283.859C283.907 676.732 284.94 676.092 286.075 676.092C287.279 676.092 288.056 676.822 288.056 677.925C288.056 679.075 287.156 679.821 285.862 679.821H284.988V680.993H285.862C287.518 680.993 288.44 681.835 288.44 683.038C288.44 684.194 287.433 684.977 286.032 684.977C284.77 684.977 283.768 684.327 283.689 683.273H282.346C282.426 684.988 283.939 686.149 286.054 686.149ZM295.754 675.091H294.433L291.705 676.902V678.244L294.369 676.476H294.433V686H295.754V675.091Z" fill="#47474D"/>
<path d="M340.04 486.149C342.155 486.149 343.726 484.823 343.726 483.038C343.726 481.653 342.906 480.647 341.531 480.418V480.332C342.634 479.997 343.321 479.091 343.321 477.861C343.321 476.316 342.101 474.942 340.083 474.942C338.197 474.942 336.631 476.103 336.567 477.818H337.845C337.893 476.732 338.927 476.092 340.061 476.092C341.265 476.092 342.043 476.822 342.043 477.925C342.043 479.075 341.143 479.821 339.848 479.821H338.975V480.993H339.848C341.505 480.993 342.426 481.835 342.426 483.038C342.426 484.194 341.42 484.977 340.019 484.977C338.756 484.977 337.755 484.327 337.675 483.273H336.333C336.412 484.988 337.925 486.149 340.04 486.149Z" fill="#AEAEB3"/>
<path d="M337.992 525.091H336.671L333.944 526.902V528.244L336.607 526.476H336.671V536H337.992V525.091ZM344.964 525.091H343.643L340.916 526.902V528.244L343.58 526.476H343.643V536H344.964V525.091Z" fill="#AEAEB3"/>
<path d="M337.462 575.091H335.581L332.87 576.833V578.644L335.422 577.014H335.486V586H337.462V575.091ZM344.11 586.149C346.469 586.149 348.158 584.849 348.163 583.076C348.158 581.712 347.151 580.572 345.883 580.359V580.284C346.986 580.039 347.753 579.049 347.758 577.866C347.753 576.188 346.208 574.942 344.11 574.942C341.995 574.942 340.45 576.183 340.455 577.866C340.45 579.049 341.206 580.039 342.33 580.284V580.359C341.041 580.572 340.045 581.712 340.051 583.076C340.045 584.849 341.728 586.149 344.11 586.149ZM344.11 584.626C342.874 584.626 342.075 583.944 342.085 582.937C342.075 581.893 342.932 581.153 344.11 581.153C345.271 581.153 346.123 581.898 346.134 582.937C346.123 583.944 345.329 584.626 344.11 584.626ZM344.11 579.656C343.097 579.656 342.373 579.001 342.384 578.053C342.373 577.115 343.076 576.487 344.11 576.487C345.127 576.487 345.825 577.115 345.835 578.053C345.825 579.006 345.106 579.656 344.11 579.656Z" fill="#DC1637"/>
<path d="M332.467 636H339.349V634.828H334.278V634.743L336.728 632.122C338.603 630.114 339.157 629.176 339.157 627.967C339.157 626.284 337.793 624.942 335.876 624.942C333.963 624.942 332.509 626.241 332.509 628.159H333.766C333.766 626.918 334.571 626.092 335.833 626.092C337.016 626.092 337.921 626.817 337.921 627.967C337.921 628.974 337.33 629.72 336.068 631.099L332.467 635.041V636ZM345.043 636.149C347.222 636.149 348.74 634.876 348.75 633.102C348.74 631.723 347.818 630.551 346.641 630.332V630.268C347.664 630.002 348.335 629.001 348.346 627.839C348.335 626.178 346.939 624.942 345.043 624.942C343.125 624.942 341.73 626.178 341.74 627.839C341.73 629.001 342.401 630.002 343.445 630.268V630.332C342.246 630.551 341.325 631.723 341.336 633.102C341.325 634.876 342.843 636.149 345.043 636.149ZM345.043 634.977C343.546 634.977 342.625 634.21 342.635 633.038C342.625 631.808 343.642 630.929 345.043 630.929C346.423 630.929 347.44 631.808 347.451 633.038C347.44 634.21 346.519 634.977 345.043 634.977ZM345.043 629.8C343.85 629.8 343.008 629.054 343.019 627.925C343.008 626.817 343.818 626.092 345.043 626.092C346.247 626.092 347.057 626.817 347.067 627.925C347.057 629.054 346.215 629.8 345.043 629.8Z" fill="#AEAEB3"/>
<path d="M341.978 675.091H340.657L337.93 676.902V678.244L340.593 676.476H340.657V686H341.978V675.091Z" fill="#AEAEB3"/>
<path d="M27.31 421.12C26.7833 421.12 26.3033 421.043 25.87 420.89C25.4367 420.737 25.09 420.503 24.83 420.19C24.57 419.87 24.44 419.477 24.44 419.01L24.45 418.8H25.74C25.7333 418.84 25.73 418.9 25.73 418.98C25.73 419.313 25.8733 419.573 26.16 419.76C26.4467 419.947 26.84 420.04 27.34 420.04C27.8733 420.04 28.27 419.963 28.53 419.81C28.79 419.657 28.92 419.443 28.92 419.17C28.92 418.957 28.8433 418.78 28.69 418.64C28.5367 418.5 28.3467 418.39 28.12 418.31C27.8933 418.223 27.5733 418.123 27.16 418.01C26.6133 417.863 26.17 417.723 25.83 417.59C25.4967 417.45 25.21 417.247 24.97 416.98C24.73 416.707 24.61 416.35 24.61 415.91C24.61 415.297 24.8633 414.83 25.37 414.51C25.8767 414.183 26.54 414.02 27.36 414.02C28.1467 414.02 28.7867 414.187 29.28 414.52C29.78 414.847 30.03 415.343 30.03 416.01V416.13H28.77V416.02C28.77 415.733 28.64 415.51 28.38 415.35C28.1267 415.183 27.7833 415.1 27.35 415.1C26.8967 415.1 26.54 415.167 26.28 415.3C26.0267 415.433 25.9 415.62 25.9 415.86C25.9 416.04 25.9733 416.193 26.12 416.32C26.2667 416.44 26.45 416.54 26.67 416.62C26.8967 416.693 27.2 416.78 27.58 416.88C28.1333 417.027 28.5833 417.17 28.93 417.31C29.2833 417.45 29.5833 417.657 29.83 417.93C30.0833 418.203 30.21 418.557 30.21 418.99C30.21 419.723 29.95 420.263 29.43 420.61C28.91 420.95 28.2033 421.12 27.31 421.12ZM32.1799 414.14H37.5299V415.23H33.4599V416.95H37.0899V418.04H33.4599V419.91H37.5899V421H32.1799V414.14ZM42.7298 421.12C41.6432 421.12 40.8132 420.83 40.2398 420.25C39.6665 419.663 39.3798 418.77 39.3798 417.57C39.3798 416.383 39.6798 415.497 40.2798 414.91C40.8865 414.317 41.7532 414.02 42.8798 414.02C43.4798 414.02 44.0198 414.113 44.4998 414.3C44.9865 414.48 45.3698 414.753 45.6498 415.12C45.9365 415.487 46.0798 415.94 46.0798 416.48H44.7598C44.7598 416.047 44.5832 415.71 44.2298 415.47C43.8765 415.223 43.4365 415.1 42.9098 415.1C42.1632 415.1 41.6065 415.297 41.2398 415.69C40.8732 416.083 40.6898 416.677 40.6898 417.47V417.67C40.6965 418.49 40.8698 419.09 41.2098 419.47C41.5565 419.85 42.0832 420.04 42.7898 420.04C43.4165 420.04 43.9065 419.897 44.2598 419.61C44.6198 419.323 44.7998 418.92 44.7998 418.4V418.39H42.5998V417.33H46.0798V421H45.1698L45.0598 420.24C44.7598 420.54 44.4232 420.763 44.0498 420.91C43.6765 421.05 43.2365 421.12 42.7298 421.12Z" fill="#AEAEB3"/>
<path d="M77.42 415.24H75.21V414.14H80.9V415.24H78.69V421H77.42V415.24ZM82.6233 414.14H87.9733V415.23H83.9033V416.95H87.5333V418.04H83.9033V419.91H88.0333V421H82.6233V414.14ZM90.0932 414.14H93.7132C94.4532 414.14 95.0099 414.323 95.3832 414.69C95.7632 415.057 95.9532 415.567 95.9532 416.22C95.9532 416.687 95.8499 417.087 95.6432 417.42C95.4365 417.747 95.1332 417.99 94.7332 418.15L96.2032 421H94.8032L93.5032 418.35H91.3732V421H90.0932V414.14ZM93.6132 417.27C93.9399 417.27 94.1965 417.177 94.3832 416.99C94.5699 416.803 94.6632 416.547 94.6632 416.22C94.6632 415.907 94.5732 415.663 94.3932 415.49C94.2132 415.317 93.9532 415.23 93.6132 415.23H91.3732V417.27H93.6132Z" fill="#AEAEB3"/>
<path d="M129.23 421.11C129.157 421.117 129.043 421.12 128.89 421.12C127.79 421.12 126.94 420.823 126.34 420.23C125.74 419.637 125.44 418.75 125.44 417.57C125.44 416.39 125.74 415.503 126.34 414.91C126.94 414.317 127.79 414.02 128.89 414.02C129.99 414.02 130.84 414.317 131.44 414.91C132.047 415.503 132.35 416.39 132.35 417.57C132.35 418.403 132.197 419.093 131.89 419.64C131.583 420.18 131.14 420.573 130.56 420.82L132.09 422.3H130.38L129.23 421.11ZM128.89 420.04C129.597 420.04 130.13 419.843 130.49 419.45C130.857 419.05 131.04 418.46 131.04 417.68V417.47C131.04 416.69 130.857 416.1 130.49 415.7C130.123 415.3 129.59 415.1 128.89 415.1C128.197 415.1 127.667 415.3 127.3 415.7C126.933 416.1 126.75 416.69 126.75 417.47V417.68C126.75 418.46 126.93 419.05 127.29 419.45C127.657 419.843 128.19 420.04 128.89 420.04ZM137.183 421.12C136.263 421.12 135.55 420.897 135.043 420.45C134.543 420.003 134.293 419.34 134.293 418.46V414.14H135.573V418.43C135.573 418.957 135.713 419.357 135.993 419.63C136.273 419.903 136.67 420.04 137.183 420.04C137.697 420.04 138.097 419.903 138.383 419.63C138.67 419.357 138.813 418.957 138.813 418.43V414.14H140.093V418.46C140.093 419.34 139.84 420.003 139.333 420.45C138.827 420.897 138.11 421.12 137.183 421.12ZM144.31 414.14H145.92L148.59 421H147.21L146.65 419.51H143.51L142.96 421H141.64L144.31 414.14ZM146.24 418.43L145.54 416.55C145.433 416.283 145.32 415.943 145.2 415.53C145.18 415.47 145.16 415.417 145.14 415.37C145.127 415.317 145.113 415.273 145.1 415.24H145.05L144.95 415.55L144.61 416.55L143.91 418.43H146.24Z" fill="#AEAEB3"/>
<path d="M181.23 421.11C181.157 421.117 181.043 421.12 180.89 421.12C179.79 421.12 178.94 420.823 178.34 420.23C177.74 419.637 177.44 418.75 177.44 417.57C177.44 416.39 177.74 415.503 178.34 414.91C178.94 414.317 179.79 414.02 180.89 414.02C181.99 414.02 182.84 414.317 183.44 414.91C184.047 415.503 184.35 416.39 184.35 417.57C184.35 418.403 184.197 419.093 183.89 419.64C183.583 420.18 183.14 420.573 182.56 420.82L184.09 422.3H182.38L181.23 421.11ZM180.89 420.04C181.597 420.04 182.13 419.843 182.49 419.45C182.857 419.05 183.04 418.46 183.04 417.68V417.47C183.04 416.69 182.857 416.1 182.49 415.7C182.123 415.3 181.59 415.1 180.89 415.1C180.197 415.1 179.667 415.3 179.3 415.7C178.933 416.1 178.75 416.69 178.75 417.47V417.68C178.75 418.46 178.93 419.05 179.29 419.45C179.657 419.843 180.19 420.04 180.89 420.04ZM189.183 421.12C188.263 421.12 187.55 420.897 187.043 420.45C186.543 420.003 186.293 419.34 186.293 418.46V414.14H187.573V418.43C187.573 418.957 187.713 419.357 187.993 419.63C188.273 419.903 188.67 420.04 189.183 420.04C189.697 420.04 190.097 419.903 190.383 419.63C190.67 419.357 190.813 418.957 190.813 418.43V414.14H192.093V418.46C192.093 419.34 191.84 420.003 191.333 420.45C190.827 420.897 190.11 421.12 189.183 421.12ZM194.36 414.14H195.63V421H194.36V414.14Z" fill="#AEAEB3"/>
<path d="M229.31 421.12C228.783 421.12 228.303 421.043 227.87 420.89C227.437 420.737 227.09 420.503 226.83 420.19C226.57 419.87 226.44 419.477 226.44 419.01L226.45 418.8H227.74C227.733 418.84 227.73 418.9 227.73 418.98C227.73 419.313 227.873 419.573 228.16 419.76C228.447 419.947 228.84 420.04 229.34 420.04C229.873 420.04 230.27 419.963 230.53 419.81C230.79 419.657 230.92 419.443 230.92 419.17C230.92 418.957 230.843 418.78 230.69 418.64C230.537 418.5 230.347 418.39 230.12 418.31C229.893 418.223 229.573 418.123 229.16 418.01C228.613 417.863 228.17 417.723 227.83 417.59C227.497 417.45 227.21 417.247 226.97 416.98C226.73 416.707 226.61 416.35 226.61 415.91C226.61 415.297 226.863 414.83 227.37 414.51C227.877 414.183 228.54 414.02 229.36 414.02C230.147 414.02 230.787 414.187 231.28 414.52C231.78 414.847 232.03 415.343 232.03 416.01V416.13H230.77V416.02C230.77 415.733 230.64 415.51 230.38 415.35C230.127 415.183 229.783 415.1 229.35 415.1C228.897 415.1 228.54 415.167 228.28 415.3C228.027 415.433 227.9 415.62 227.9 415.86C227.9 416.04 227.973 416.193 228.12 416.32C228.267 416.44 228.45 416.54 228.67 416.62C228.897 416.693 229.2 416.78 229.58 416.88C230.133 417.027 230.583 417.17 230.93 417.31C231.283 417.45 231.583 417.657 231.83 417.93C232.083 418.203 232.21 418.557 232.21 418.99C232.21 419.723 231.95 420.263 231.43 420.61C230.91 420.95 230.203 421.12 229.31 421.12ZM234.18 414.14H239.53V415.23H235.46V416.95H239.09V418.04H235.46V419.91H239.59V421H234.18V414.14ZM243.44 417.4L241.18 414.14H242.74L244.28 416.44H244.34L245.88 414.14H247.35L245.09 417.39L247.59 421H246.04L244.25 418.34H244.19L242.43 421H240.96L243.44 417.4Z" fill="#AEAEB3"/>
<path d="M279.31 421.12C278.783 421.12 278.303 421.043 277.87 420.89C277.437 420.737 277.09 420.503 276.83 420.19C276.57 419.87 276.44 419.477 276.44 419.01L276.45 418.8H277.74C277.733 418.84 277.73 418.9 277.73 418.98C277.73 419.313 277.873 419.573 278.16 419.76C278.447 419.947 278.84 420.04 279.34 420.04C279.873 420.04 280.27 419.963 280.53 419.81C280.79 419.657 280.92 419.443 280.92 419.17C280.92 418.957 280.843 418.78 280.69 418.64C280.537 418.5 280.347 418.39 280.12 418.31C279.893 418.223 279.573 418.123 279.16 418.01C278.613 417.863 278.17 417.723 277.83 417.59C277.497 417.45 277.21 417.247 276.97 416.98C276.73 416.707 276.61 416.35 276.61 415.91C276.61 415.297 276.863 414.83 277.37 414.51C277.877 414.183 278.54 414.02 279.36 414.02C280.147 414.02 280.787 414.187 281.28 414.52C281.78 414.847 282.03 415.343 282.03 416.01V416.13H280.77V416.02C280.77 415.733 280.64 415.51 280.38 415.35C280.127 415.183 279.783 415.1 279.35 415.1C278.897 415.1 278.54 415.167 278.28 415.3C278.027 415.433 277.9 415.62 277.9 415.86C277.9 416.04 277.973 416.193 278.12 416.32C278.267 416.44 278.45 416.54 278.67 416.62C278.897 416.693 279.2 416.78 279.58 416.88C280.133 417.027 280.583 417.17 280.93 417.31C281.283 417.45 281.583 417.657 281.83 417.93C282.083 418.203 282.21 418.557 282.21 418.99C282.21 419.723 281.95 420.263 281.43 420.61C280.91 420.95 280.203 421.12 279.31 421.12ZM286.18 414.14H287.79L290.46 421H289.08L288.52 419.51H285.38L284.83 421H283.51L286.18 414.14ZM288.11 418.43L287.41 416.55C287.303 416.283 287.19 415.943 287.07 415.53C287.05 415.47 287.03 415.417 287.01 415.37C286.997 415.317 286.983 415.273 286.97 415.24H286.92L286.82 415.55L286.48 416.55L285.78 418.43H288.11ZM292.011 414.14H295.731C296.098 414.14 296.425 414.21 296.711 414.35C297.005 414.49 297.231 414.69 297.391 414.95C297.558 415.203 297.641 415.497 297.641 415.83C297.641 416.21 297.535 416.54 297.321 416.82C297.115 417.1 296.848 417.293 296.521 417.4V417.44C296.908 417.52 297.221 417.71 297.461 418.01C297.708 418.31 297.831 418.677 297.831 419.11C297.831 419.73 297.635 420.2 297.241 420.52C296.855 420.84 296.351 421 295.731 421H292.011V414.14ZM295.391 416.95C295.685 416.95 295.915 416.87 296.081 416.71C296.248 416.55 296.331 416.347 296.331 416.1C296.331 415.813 296.255 415.597 296.101 415.45C295.948 415.303 295.738 415.23 295.471 415.23H293.291V416.95H295.391ZM295.561 419.91C295.855 419.91 296.088 419.833 296.261 419.68C296.435 419.52 296.521 419.283 296.521 418.97C296.521 418.67 296.435 418.437 296.261 418.27C296.088 418.103 295.831 418.02 295.491 418.02H293.291V419.91H295.561Z" fill="#AEAEB3"/>
<path d="M326.71 414.14H329.45C330.51 414.14 331.33 414.427 331.91 415C332.49 415.567 332.78 416.423 332.78 417.57C332.78 418.717 332.49 419.577 331.91 420.15C331.33 420.717 330.51 421 329.45 421H326.71V414.14ZM329.45 419.91C330.103 419.91 330.6 419.723 330.94 419.35C331.287 418.977 331.463 418.417 331.47 417.67V417.47C331.47 416.73 331.297 416.173 330.95 415.8C330.603 415.42 330.103 415.23 329.45 415.23H327.99V419.91H329.45ZM337.907 421.12C336.807 421.12 335.957 420.823 335.357 420.23C334.757 419.637 334.457 418.75 334.457 417.57C334.457 416.39 334.757 415.503 335.357 414.91C335.957 414.317 336.807 414.02 337.907 414.02C339.007 414.02 339.857 414.317 340.457 414.91C341.063 415.503 341.367 416.39 341.367 417.57C341.367 418.75 341.063 419.637 340.457 420.23C339.857 420.823 339.007 421.12 337.907 421.12ZM337.907 420.04C338.613 420.04 339.147 419.843 339.507 419.45C339.873 419.05 340.057 418.46 340.057 417.68V417.47C340.057 416.69 339.873 416.1 339.507 415.7C339.14 415.3 338.607 415.1 337.907 415.1C337.213 415.1 336.683 415.3 336.317 415.7C335.95 416.1 335.767 416.69 335.767 417.47V417.68C335.767 418.46 335.947 419.05 336.307 419.45C336.673 419.843 337.207 420.04 337.907 420.04ZM343.31 414.14H345.28L346.47 418.23C346.55 418.51 346.657 418.967 346.79 419.6H346.84C346.96 418.927 347.053 418.47 347.12 418.23L348.32 414.14H350.22V421H348.94V416.57C348.94 416.403 348.957 416.017 348.99 415.41H348.93C348.877 415.637 348.81 415.89 348.73 416.17L347.32 421H346.14L344.74 416.17C344.693 416.017 344.647 415.843 344.6 415.65L344.54 415.41H344.49C344.517 416.01 344.53 416.397 344.53 416.57V421H343.31V414.14Z" fill="#AEAEB3"/>
<path d="M141.98 380.24C140.553 380.24 139.453 379.9 138.68 379.22C137.907 378.527 137.52 377.52 137.52 376.2V375.48H140.06V376.22C140.06 376.82 140.22 377.28 140.54 377.6C140.873 377.92 141.353 378.08 141.98 378.08C142.58 378.08 143.033 377.913 143.34 377.58C143.66 377.233 143.82 376.74 143.82 376.1V366.28H146.4V376.1C146.4 377.46 146.02 378.493 145.26 379.2C144.5 379.893 143.407 380.24 141.98 380.24ZM152.482 380.24C150.216 380.24 149.082 379.02 149.082 376.58V369.48H151.482V376.16C151.482 376.88 151.642 377.393 151.962 377.7C152.296 378.007 152.782 378.16 153.422 378.16C154.089 378.16 154.649 377.92 155.102 377.44C155.556 376.96 155.782 376.347 155.782 375.6V369.48H158.182V380H156.202L156.002 378.6H155.862C155.476 379.12 154.996 379.527 154.422 379.82C153.862 380.1 153.216 380.24 152.482 380.24ZM160.978 365.54H163.378V380H160.978V365.54ZM166.154 365.54H168.554V370.68H168.694C169.041 370.24 169.481 369.893 170.014 369.64C170.547 369.373 171.161 369.24 171.854 369.24C172.921 369.24 173.754 369.533 174.354 370.12C174.954 370.693 175.254 371.62 175.254 372.9V380H172.854V373.32C172.854 372.6 172.687 372.087 172.354 371.78C172.034 371.473 171.554 371.32 170.914 371.32C170.247 371.32 169.687 371.56 169.234 372.04C168.781 372.52 168.554 373.133 168.554 373.88V380H166.154V365.54ZM182.51 380.24C180.777 380.24 179.477 379.793 178.61 378.9C177.757 378.007 177.33 376.62 177.33 374.74C177.33 372.86 177.757 371.473 178.61 370.58C179.477 369.687 180.777 369.24 182.51 369.24C184.243 369.24 185.537 369.687 186.39 370.58C187.257 371.473 187.69 372.86 187.69 374.74C187.69 376.62 187.257 378.007 186.39 378.9C185.537 379.793 184.243 380.24 182.51 380.24ZM182.51 378.28C183.457 378.28 184.143 378.007 184.57 377.46C184.997 376.9 185.21 376.04 185.21 374.88V374.6C185.21 373.44 184.997 372.587 184.57 372.04C184.143 371.48 183.457 371.2 182.51 371.2C181.55 371.2 180.857 371.48 180.43 372.04C180.017 372.587 179.81 373.44 179.81 374.6V374.88C179.81 376.04 180.017 376.9 180.43 377.46C180.857 378.007 181.55 378.28 182.51 378.28ZM194.832 379.32C194.832 378.573 195.006 377.9 195.352 377.3C195.699 376.687 196.119 376.153 196.612 375.7C197.119 375.247 197.779 374.72 198.592 374.12C199.286 373.6 199.832 373.167 200.232 372.82C200.646 372.46 200.992 372.08 201.272 371.68C201.646 371.147 201.832 370.553 201.832 369.9C201.832 369.393 201.659 368.96 201.312 368.6C200.979 368.227 200.452 368.04 199.732 368.04C198.959 368.04 198.379 368.227 197.992 368.6C197.619 368.96 197.432 369.487 197.432 370.18V371H195.052C194.999 370.773 194.972 370.507 194.972 370.2C194.972 368.813 195.432 367.773 196.352 367.08C197.272 366.387 198.439 366.04 199.852 366.04C200.946 366.04 201.819 366.247 202.472 366.66C203.139 367.073 203.606 367.587 203.872 368.2C204.139 368.8 204.272 369.42 204.272 370.06C204.272 370.9 204.066 371.667 203.652 372.36C203.252 373.04 202.772 373.62 202.212 374.1C201.652 374.58 200.932 375.14 200.052 375.78C199.706 376.02 199.366 376.267 199.032 376.52C198.699 376.773 198.432 377 198.232 377.2C198.006 377.427 197.846 377.633 197.752 377.82H204.352V380H194.832V379.32ZM210.665 380.24C209.612 380.24 208.739 380.027 208.045 379.6C207.352 379.173 206.819 378.447 206.445 377.42C206.085 376.38 205.905 374.953 205.905 373.14C205.905 371.327 206.085 369.907 206.445 368.88C206.819 367.84 207.352 367.107 208.045 366.68C208.739 366.253 209.612 366.04 210.665 366.04C211.705 366.04 212.572 366.253 213.265 366.68C213.959 367.107 214.492 367.84 214.865 368.88C215.239 369.92 215.425 371.34 215.425 373.14C215.425 374.94 215.239 376.36 214.865 377.4C214.492 378.44 213.959 379.173 213.265 379.6C212.572 380.027 211.705 380.24 210.665 380.24ZM210.665 378.28C211.279 378.28 211.752 378.113 212.085 377.78C212.419 377.447 212.645 376.953 212.765 376.3C212.885 375.633 212.945 374.753 212.945 373.66V372.68C212.945 371.573 212.885 370.687 212.765 370.02C212.645 369.353 212.419 368.853 212.085 368.52C211.752 368.173 211.279 368 210.665 368C210.052 368 209.579 368.167 209.245 368.5C208.912 368.833 208.685 369.333 208.565 370C208.445 370.653 208.385 371.527 208.385 372.62V373.6C208.385 374.707 208.445 375.593 208.565 376.26C208.685 376.927 208.912 377.433 209.245 377.78C209.579 378.113 210.052 378.28 210.665 378.28ZM217.059 379.32C217.059 378.573 217.232 377.9 217.579 377.3C217.925 376.687 218.345 376.153 218.839 375.7C219.345 375.247 220.005 374.72 220.819 374.12C221.512 373.6 222.059 373.167 222.459 372.82C222.872 372.46 223.219 372.08 223.499 371.68C223.872 371.147 224.059 370.553 224.059 369.9C224.059 369.393 223.885 368.96 223.539 368.6C223.205 368.227 222.679 368.04 221.959 368.04C221.185 368.04 220.605 368.227 220.219 368.6C219.845 368.96 219.659 369.487 219.659 370.18V371H217.279C217.225 370.773 217.199 370.507 217.199 370.2C217.199 368.813 217.659 367.773 218.579 367.08C219.499 366.387 220.665 366.04 222.079 366.04C223.172 366.04 224.045 366.247 224.699 366.66C225.365 367.073 225.832 367.587 226.099 368.2C226.365 368.8 226.499 369.42 226.499 370.06C226.499 370.9 226.292 371.667 225.879 372.36C225.479 373.04 224.999 373.62 224.439 374.1C223.879 374.58 223.159 375.14 222.279 375.78C221.932 376.02 221.592 376.267 221.259 376.52C220.925 376.773 220.659 377 220.459 377.2C220.232 377.427 220.072 377.633 219.979 377.82H226.579V380H217.059V379.32ZM229.092 378.04H232.432V369.32H229.072V367.84C229.685 367.773 230.432 367.593 231.312 367.3C232.205 367.007 232.992 366.667 233.672 366.28H234.832V378.04H237.892V380H229.092V378.04Z" fill="#47474D"/>
<path d="M343.59 377.59L348.17 373L343.59 368.41L345 367L351 373L345 379L343.59 377.59Z" fill="#7A7A80"/>
<path d="M31.41 368.41L26.83 373L31.41 377.59L30 379L24 373L30 367L31.41 368.41Z" fill="#7A7A80"/>
<line x1="24" y1="439.5" x2="351" y2="439.5" stroke="#EBEBF0"/>
<rect x="24" y="722" width="327" height="56" fill="#DC1637"/>
<path d="M161.451 747.657C161.078 745.324 159.251 743.961 156.945 743.961C154.122 743.961 152.039 746.075 152.039 749.564C152.039 753.053 154.111 755.168 156.945 755.168C159.342 755.168 161.094 753.666 161.451 751.509L159.789 751.503C159.507 752.899 158.335 753.666 156.955 753.666C155.086 753.666 153.674 752.233 153.674 749.564C153.674 746.917 155.08 745.463 156.961 745.463C158.351 745.463 159.518 746.246 159.789 747.657H161.451ZM166.739 755.184C169.046 755.184 170.553 753.495 170.553 750.965C170.553 748.419 169.046 746.731 166.739 746.731C164.433 746.731 162.925 748.419 162.925 750.965C162.925 753.495 164.433 755.184 166.739 755.184ZM166.745 753.847C165.237 753.847 164.534 752.531 164.534 750.96C164.534 749.394 165.237 748.062 166.745 748.062C168.241 748.062 168.944 749.394 168.944 750.96C168.944 752.531 168.241 753.847 166.745 753.847ZM173.924 750.161C173.924 748.856 174.723 748.11 175.831 748.11C176.912 748.11 177.567 748.819 177.567 750.006V755.019H179.16V749.815C179.16 747.791 178.046 746.731 176.374 746.731C175.143 746.731 174.339 747.301 173.961 748.169H173.86V746.837H172.331V755.019H173.924V750.161ZM185.19 746.837H183.426V746.102C183.426 745.378 183.725 744.983 184.502 744.983C184.833 744.983 185.067 745.058 185.216 745.106L185.589 743.817C185.365 743.732 184.902 743.598 184.257 743.598C182.963 743.598 181.828 744.355 181.828 745.889V746.837H180.566V748.116H181.828V755.019H183.426V748.116H185.19V746.837ZM186.833 755.019H188.426V746.837H186.833V755.019ZM187.637 745.575C188.186 745.575 188.644 745.149 188.644 744.627C188.644 744.105 188.186 743.673 187.637 743.673C187.083 743.673 186.63 744.105 186.63 744.627C186.63 745.149 187.083 745.575 187.637 745.575ZM190.568 755.019H192.161V750.022C192.161 748.952 192.987 748.179 194.116 748.179C194.446 748.179 194.819 748.238 194.947 748.275V746.752C194.787 746.731 194.473 746.715 194.27 746.715C193.311 746.715 192.491 747.258 192.193 748.137H192.108V746.837H190.568V755.019ZM196.325 755.019H197.918V749.975C197.918 748.872 198.69 748.105 199.596 748.105C200.48 748.105 201.092 748.691 201.092 749.58V755.019H202.68V749.804C202.68 748.819 203.282 748.105 204.32 748.105C205.162 748.105 205.855 748.574 205.855 749.682V755.019H207.447V749.532C207.447 747.663 206.403 746.731 204.922 746.731C203.745 746.731 202.861 747.295 202.467 748.169H202.382C202.025 747.274 201.274 746.731 200.182 746.731C199.1 746.731 198.296 747.269 197.955 748.169H197.854V746.837H196.325V755.019ZM211.963 755.2C213.316 755.2 214.078 754.513 214.381 753.9H214.445V755.019H216.001V749.586C216.001 747.205 214.126 746.731 212.826 746.731C211.345 746.731 209.981 747.327 209.449 748.819L210.946 749.16C211.18 748.579 211.777 748.02 212.847 748.02C213.875 748.02 214.403 748.558 214.403 749.484V749.522C214.403 750.102 213.806 750.092 212.336 750.262C210.786 750.443 209.198 750.848 209.198 752.707C209.198 754.316 210.408 755.2 211.963 755.2ZM212.309 753.922C211.409 753.922 210.759 753.517 210.759 752.728C210.759 751.876 211.515 751.573 212.437 751.45C212.954 751.381 214.179 751.242 214.408 751.013V752.068C214.408 753.037 213.636 753.922 212.309 753.922ZM218.122 755.019H219.715V750.022C219.715 748.952 220.54 748.179 221.67 748.179C222 748.179 222.373 748.238 222.5 748.275V746.752C222.341 746.731 222.026 746.715 221.824 746.715C220.865 746.715 220.045 747.258 219.747 748.137H219.661V746.837H218.122V755.019Z" fill="white"/>
<path d="M24.75 257.14H27.39C28.47 257.14 29.3033 257.423 29.89 257.99C30.4767 258.557 30.77 259.417 30.77 260.57C30.77 261.723 30.4767 262.583 29.89 263.15C29.3033 263.717 28.47 264 27.39 264H24.75V257.14ZM27.39 263.05C28.1167 263.05 28.67 262.857 29.05 262.47C29.4367 262.077 29.63 261.463 29.63 260.63V260.52C29.63 259.68 29.4367 259.067 29.05 258.68C28.67 258.287 28.1167 258.09 27.39 258.09H25.86V263.05H27.39ZM32.3668 257.14H37.6868V258.09H33.4768V260.02H37.2468V260.97H33.4768V263.05H37.7468V264H32.3668V257.14Z" fill="#7A7A80"/>
<path d="M29.1882 278.091H27.5849L24.8629 279.87V281.447L27.473 279.742H27.5369V289H29.1882V278.091ZM35.8253 289.149C38.0945 289.149 39.6978 287.86 39.7085 286.092C39.6978 284.717 38.7337 283.561 37.5138 283.343V283.279C38.5739 283.023 39.293 282.027 39.3036 280.85C39.293 279.183 37.8228 277.942 35.8253 277.942C33.8065 277.942 32.3363 279.183 32.3469 280.85C32.3363 282.022 33.0554 283.023 34.1367 283.279V283.343C32.8956 283.561 31.9315 284.717 31.9421 286.092C31.9315 287.86 33.5348 289.149 35.8253 289.149ZM35.8253 287.801C34.4616 287.801 33.5987 287.077 33.6094 285.985C33.5987 284.85 34.5362 284.041 35.8253 284.041C37.093 284.041 38.0305 284.85 38.0412 285.985C38.0305 287.077 37.1729 287.801 35.8253 287.801ZM35.8253 282.725C34.7227 282.725 33.9396 282.027 33.9503 280.989C33.9396 279.966 34.696 279.289 35.8253 279.289C36.9332 279.289 37.6896 279.966 37.7003 280.989C37.6896 282.027 36.9119 282.725 35.8253 282.725ZM45.7929 277.58H44.3707L40.855 290.641H42.2773L45.7929 277.58ZM50.9225 289.181C53.442 289.181 54.9175 287.125 54.9175 283.551C54.9175 280.003 53.4207 277.942 50.9225 277.942C48.4189 277.942 46.9275 279.998 46.9221 283.551C46.9221 287.12 48.3976 289.176 50.9225 289.181ZM50.9225 287.759C49.447 287.759 48.5574 286.278 48.5574 283.551C48.5628 280.834 49.4523 279.337 50.9225 279.337C52.3873 279.337 53.2822 280.834 53.2822 283.551C53.2822 286.278 52.3927 287.759 50.9225 287.759ZM60.6158 289.149C62.8956 289.17 64.4084 287.53 64.4031 285.436C64.4084 283.348 62.8903 281.852 60.9993 281.852C59.8487 281.852 58.8526 282.406 58.2933 283.327H58.2134C58.2188 280.85 59.1562 279.38 60.7543 279.38C61.8036 279.38 62.4641 280.019 62.6879 280.925H64.3125C64.0621 279.199 62.7038 277.942 60.7543 277.942C58.2188 277.942 56.6367 280.12 56.6367 283.913C56.6314 287.929 58.6768 289.133 60.6158 289.149ZM60.6104 287.764C59.3427 287.764 58.4158 286.699 58.4158 285.474C58.4212 284.254 59.3906 283.189 60.6477 283.189C61.8942 283.189 62.8104 284.195 62.805 285.458C62.8104 286.747 61.8569 287.764 60.6104 287.764ZM70.5194 277.58H69.0972L65.5816 290.641H67.0038L70.5194 277.58ZM71.8511 289H79.0315V287.588H74.1203V287.509L76.2883 285.239C78.2858 283.221 78.8557 282.256 78.8557 281.037C78.8557 279.284 77.4282 277.942 75.3721 277.942C73.3319 277.942 71.8405 279.263 71.8405 281.255H73.4118C73.4065 280.083 74.1629 279.316 75.3401 279.316C76.4481 279.316 77.2897 279.998 77.2897 281.085C77.2897 282.049 76.7144 282.741 75.5425 283.982L71.8511 287.807V289ZM84.8483 289.181C87.3678 289.181 88.8433 287.125 88.8433 283.551C88.8433 280.003 87.3465 277.942 84.8483 277.942C82.3447 277.942 80.8532 279.998 80.8479 283.551C80.8479 287.12 82.3234 289.176 84.8483 289.181ZM84.8483 287.759C83.3728 287.759 82.4832 286.278 82.4832 283.551C82.4885 280.834 83.3781 279.337 84.8483 279.337C86.3131 279.337 87.208 280.834 87.208 283.551C87.208 286.278 86.3184 287.759 84.8483 287.759ZM90.733 289H97.9134V287.588H93.0021V287.509L95.1701 285.239C97.1676 283.221 97.7376 282.256 97.7376 281.037C97.7376 279.284 96.31 277.942 94.2539 277.942C92.2138 277.942 90.7223 279.263 90.7223 281.255H92.2937C92.2884 280.083 93.0447 279.316 94.2219 279.316C95.3299 279.316 96.1715 279.998 96.1715 281.085C96.1715 282.049 95.5962 282.741 94.4244 283.982L90.733 287.807V289ZM104.071 278.091H102.468L99.7457 279.87V281.447L102.356 279.742H102.42V289H104.071V278.091Z" fill="white"/>
<path d="M209.512 273.357L206.025 269.909L206.944 269L212 274L206.944 279L206.025 278.091L209.512 274.643H164V273.357L209.512 273.357Z" fill="#7A7A80"/>
<path d="M248.73 257.14H250.13L252.79 264H251.61L250.98 262.33H247.82L247.2 264H246.06L248.73 257.14ZM250.62 261.38L249.87 259.37L249.42 258.09H249.37L249.28 258.35C249.167 258.697 249.05 259.03 248.93 259.35L248.17 261.38H250.62ZM254.994 258.1H252.714V257.14H258.384V258.1H256.104V264H254.994V258.1ZM259.757 257.14H265.077V258.09H260.867V260.02H264.637V260.97H260.867V263.05H265.137V264H259.757V257.14ZM262.457 255.47H263.597L263.607 255.5L262.787 256.49H261.917L262.457 255.47Z" fill="#7A7A80"/>
<path d="M251.188 278.091H249.585L246.863 279.87V281.447L249.473 279.742H249.537V289H251.188V278.091ZM257.825 289.149C260.094 289.149 261.698 287.86 261.708 286.092C261.698 284.717 260.734 283.561 259.514 283.343V283.279C260.574 283.023 261.293 282.027 261.304 280.85C261.293 279.183 259.823 277.942 257.825 277.942C255.806 277.942 254.336 279.183 254.347 280.85C254.336 282.022 255.055 283.023 256.137 283.279V283.343C254.896 283.561 253.931 284.717 253.942 286.092C253.931 287.86 255.535 289.149 257.825 289.149ZM257.825 287.801C256.462 287.801 255.599 287.077 255.609 285.985C255.599 284.85 256.536 284.041 257.825 284.041C259.093 284.041 260.031 284.85 260.041 285.985C260.031 287.077 259.173 287.801 257.825 287.801ZM257.825 282.725C256.723 282.725 255.94 282.027 255.95 280.989C255.94 279.966 256.696 279.289 257.825 279.289C258.933 279.289 259.69 279.966 259.7 280.989C259.69 282.027 258.912 282.725 257.825 282.725ZM267.793 277.58H266.371L262.855 290.641H264.277L267.793 277.58ZM272.922 289.181C275.442 289.181 276.918 287.125 276.918 283.551C276.918 280.003 275.421 277.942 272.922 277.942C270.419 277.942 268.927 279.998 268.922 283.551C268.922 287.12 270.398 289.176 272.922 289.181ZM272.922 287.759C271.447 287.759 270.557 286.278 270.557 283.551C270.563 280.834 271.452 279.337 272.922 279.337C274.387 279.337 275.282 280.834 275.282 283.551C275.282 286.278 274.393 287.759 272.922 287.759ZM282.616 289.149C284.896 289.17 286.408 287.53 286.403 285.436C286.408 283.348 284.89 281.852 282.999 281.852C281.849 281.852 280.853 282.406 280.293 283.327H280.213C280.219 280.85 281.156 279.38 282.754 279.38C283.804 279.38 284.464 280.019 284.688 280.925H286.312C286.062 279.199 284.704 277.942 282.754 277.942C280.219 277.942 278.637 280.12 278.637 283.913C278.631 287.929 280.677 289.133 282.616 289.149ZM282.61 287.764C281.343 287.764 280.416 286.699 280.416 285.474C280.421 284.254 281.391 283.189 282.648 283.189C283.894 283.189 284.81 284.195 284.805 285.458C284.81 286.747 283.857 287.764 282.61 287.764ZM292.519 277.58H291.097L287.582 290.641H289.004L292.519 277.58ZM293.851 289H301.032V287.588H296.12V287.509L298.288 285.239C300.286 283.221 300.856 282.256 300.856 281.037C300.856 279.284 299.428 277.942 297.372 277.942C295.332 277.942 293.84 279.263 293.84 281.255H295.412C295.407 280.083 296.163 279.316 297.34 279.316C298.448 279.316 299.29 279.998 299.29 281.085C299.29 282.049 298.714 282.741 297.543 283.982L293.851 287.807V289ZM306.848 289.181C309.368 289.181 310.843 287.125 310.843 283.551C310.843 280.003 309.347 277.942 306.848 277.942C304.345 277.942 302.853 279.998 302.848 283.551C302.848 287.12 304.323 289.176 306.848 289.181ZM306.848 287.759C305.373 287.759 304.483 286.278 304.483 283.551C304.489 280.834 305.378 279.337 306.848 279.337C308.313 279.337 309.208 280.834 309.208 283.551C309.208 286.278 308.318 287.759 306.848 287.759ZM312.733 289H319.913V287.588H315.002V287.509L317.17 285.239C319.168 283.221 319.738 282.256 319.738 281.037C319.738 279.284 318.31 277.942 316.254 277.942C314.214 277.942 312.722 279.263 312.722 281.255H314.294C314.288 280.083 315.045 279.316 316.222 279.316C317.33 279.316 318.172 279.998 318.172 281.085C318.172 282.049 317.596 282.741 316.424 283.982L312.733 287.807V289ZM326.071 278.091H324.468L321.746 279.87V281.447L324.356 279.742H324.42V289H326.071V278.091Z" fill="white"/>
<rect opacity="0.24" x="120" y="799" width="135" height="5" rx="2.5" fill="black"/>
<path d="M78 0H297V0C294.894 0.602689 293.418 2.49525 293.345 4.68446L293.317 5.5618V5.5618C293.317 19.0587 282.375 30 268.878 30H106.122C92.6249 30 81.6835 19.0587 81.6835 5.5618V5.5618L81.6545 4.68447C81.5823 2.49525 80.1059 0.602689 78 0V0Z" fill="#09090A"/>
<path opacity="0.35" d="M338.667 19.8334H355.333C356.53 19.8334 357.5 20.8034 357.5 22V28C357.5 29.1967 356.53 30.1667 355.333 30.1667H338.667C337.47 30.1667 336.5 29.1967 336.5 28V22C336.5 20.8034 337.47 19.8334 338.667 19.8334Z" fill="white" stroke="white"/>
<path opacity="0.4" d="M359 23V27C359.805 26.6612 360.328 25.8731 360.328 25C360.328 24.1269 359.805 23.3388 359 23" fill="white"/>
<path d="M338 22.6667C338 21.9303 338.597 21.3334 339.333 21.3334H354.667C355.403 21.3334 356 21.9303 356 22.6667V27.3334C356 28.0698 355.403 28.6667 354.667 28.6667H339.333C338.597 28.6667 338 28.0698 338 27.3334V22.6667Z" fill="white"/>
<path fill-rule="evenodd" clip-rule="evenodd" d="M323.33 21.608C325.546 21.6081 327.677 22.4596 329.283 23.9863C329.404 24.1042 329.598 24.1027 329.717 23.983L330.873 22.8163C330.933 22.7556 330.967 22.6734 330.966 22.5878C330.966 22.5022 330.931 22.4204 330.87 22.3603C326.655 18.3208 320.005 18.3208 315.79 22.3603C315.729 22.4203 315.694 22.5021 315.694 22.5877C315.693 22.6733 315.727 22.7556 315.787 22.8163L316.943 23.983C317.062 24.1029 317.256 24.1044 317.377 23.9863C318.983 22.4595 321.114 21.608 323.33 21.608ZM323.33 25.4037C324.548 25.4036 325.722 25.8561 326.624 26.6733C326.746 26.7893 326.939 26.7868 327.058 26.6677L328.212 25.501C328.273 25.4398 328.307 25.3568 328.306 25.2705C328.305 25.1843 328.27 25.102 328.208 25.042C325.459 22.4856 321.204 22.4856 318.455 25.042C318.393 25.102 318.358 25.1843 318.357 25.2706C318.356 25.3569 318.39 25.4399 318.451 25.501L319.605 26.6677C319.724 26.7868 319.917 26.7893 320.039 26.6733C320.941 25.8567 322.114 25.4042 323.33 25.4037ZM325.643 27.9575C325.645 28.044 325.611 28.1274 325.549 28.188L323.552 30.2037C323.493 30.2629 323.414 30.2963 323.33 30.2963C323.247 30.2963 323.167 30.2629 323.109 30.2037L321.111 28.188C321.049 28.1274 321.015 28.0439 321.017 27.9574C321.019 27.8709 321.056 27.789 321.121 27.731C322.396 26.6521 324.264 26.6521 325.54 27.731C325.604 27.7891 325.642 27.871 325.643 27.9575Z" fill="white"/>
<path fill-rule="evenodd" clip-rule="evenodd" d="M309.667 19.6666H308.667C308.114 19.6666 307.667 20.1143 307.667 20.6666V29.3333C307.667 29.8856 308.114 30.3333 308.667 30.3333H309.667C310.219 30.3333 310.667 29.8856 310.667 29.3333V20.6666C310.667 20.1143 310.219 19.6666 309.667 19.6666ZM304 22H305C305.552 22 306 22.4477 306 23V29.3333C306 29.8856 305.552 30.3333 305 30.3333H304C303.448 30.3333 303 29.8856 303 29.3333V23C303 22.4477 303.448 22 304 22ZM300.333 24.3333H299.333C298.781 24.3333 298.333 24.781 298.333 25.3333V29.3333C298.333 29.8856 298.781 30.3333 299.333 30.3333H300.333C300.886 30.3333 301.333 29.8856 301.333 29.3333V25.3333C301.333 24.781 300.886 24.3333 300.333 24.3333ZM295.667 26.3333H294.667C294.114 26.3333 293.667 26.781 293.667 27.3333V29.3333C293.667 29.8856 294.114 30.3333 294.667 30.3333H295.667C296.219 30.3333 296.667 29.8856 296.667 29.3333V27.3333C296.667 26.781 296.219 26.3333 295.667 26.3333Z" fill="white"/>
<path d="M37.3207 30.2563C40.0087 30.2563 41.6053 28.1543 41.6053 24.5947C41.6053 23.2544 41.349 22.1265 40.8583 21.2549C40.1478 19.8999 38.9247 19.1675 37.3793 19.1675C35.0795 19.1675 33.4535 20.7129 33.4535 22.8809C33.4535 24.917 34.9183 26.3965 36.9325 26.3965C38.1703 26.3965 39.1737 25.8179 39.6718 24.8145H39.6937C39.6937 24.8145 39.723 24.8145 39.7303 24.8145C39.745 24.8145 39.7963 24.8145 39.7963 24.8145C39.7963 27.2314 38.8807 28.6743 37.3353 28.6743C36.4271 28.6743 35.724 28.1763 35.4823 27.3779H33.6C33.9149 29.1138 35.3871 30.2563 37.3207 30.2563ZM37.3866 24.895C36.1708 24.895 35.3065 24.0308 35.3065 22.8223C35.3065 21.6431 36.2147 20.7422 37.3939 20.7422C38.5731 20.7422 39.4813 21.6577 39.4813 22.8516C39.4813 24.0308 38.5951 24.895 37.3866 24.895Z" fill="white"/>
<path d="M44.6965 30.1538C45.3923 30.1538 45.8683 29.6558 45.8683 28.9966C45.8683 28.3301 45.3923 27.8394 44.6965 27.8394C44.008 27.8394 43.5246 28.3301 43.5246 28.9966C43.5246 29.6558 44.008 30.1538 44.6965 30.1538ZM44.6965 24.6606C45.3923 24.6606 45.8683 24.1699 45.8683 23.5107C45.8683 22.8442 45.3923 22.3535 44.6965 22.3535C44.008 22.3535 43.5246 22.8442 43.5246 23.5107C43.5246 24.1699 44.008 24.6606 44.6965 24.6606Z" fill="white"/>
<path d="M52.7241 30H54.5332V28.0298H55.9614V26.4331H54.5332V19.4312H51.8672C49.9995 22.2437 48.5127 24.5947 47.5605 26.3452V28.0298H52.7241V30ZM49.311 26.3672C50.5415 24.1992 51.6401 22.4634 52.6509 20.9692H52.7534V26.4771H49.311V26.3672Z" fill="white"/>
<path d="M59.99 30H61.8797V19.4312H59.9973L57.2361 21.3647V23.1812L59.8655 21.3354H59.99V30Z" fill="white"/>
<path d="M34.828 73L39.778 77.95L38.364 79.364L32 73L38.364 66.636L39.778 68.05L34.828 73Z" fill="white"/>
</g>
<defs>
<clipPath id="clip0_36_607">
<rect width="375" height="812" fill="white"/>
</clipPath>
</defs>
</svg>
