<svg width="375" height="812" viewBox="0 0 375 812" fill="none" xmlns="http://www.w3.org/2000/svg">
<rect width="375" height="812" fill="#1B1B1F"/>
<path fill-rule="evenodd" clip-rule="evenodd" d="M178.373 395.943L148.841 381.409L148 381V391.558L167.648 401.227L178.373 395.943ZM228 430.929V420.371L208.422 410.743L197.705 416.027L228 430.929ZM227.168 381.409L228 381.01V391.568L198.756 405.979L188.039 411.263L148 431V420.431L177.314 405.99L188.031 400.695H188.039L227.168 381.409Z" fill="#DC1637"/>
<rect opacity="0.24" x="120" y="799" width="135" height="5" rx="2.5" fill="white"/>
<path d="M78 0H297C294.894 0.602689 293.418 2.49525 293.345 4.68446L293.317 5.5618C293.317 19.0587 282.375 30 268.878 30H106.122C92.6249 30 81.6835 19.0587 81.6835 5.5618L81.6545 4.68447C81.5823 2.49525 80.1059 0.602689 78 0Z" fill="#09090A"/>
<path opacity="0.35" d="M336.5 22C336.5 20.8034 337.47 19.8334 338.667 19.8334H355.333C356.53 19.8334 357.5 20.8034 357.5 22V28C357.5 29.1967 356.53 30.1667 355.333 30.1667H338.667C337.47 30.1667 336.5 29.1967 336.5 28V22Z" stroke="white"/>
<path opacity="0.4" d="M359 23V27C359.805 26.6613 360.328 25.8732 360.328 25C360.328 24.1269 359.805 23.3388 359 23Z" fill="white"/>
<path d="M338 22.6667C338 21.9303 338.597 21.3334 339.333 21.3334H354.667C355.403 21.3334 356 21.9303 356 22.6667V27.3334C356 28.0698 355.403 28.6667 354.667 28.6667H339.333C338.597 28.6667 338 28.0698 338 27.3334V22.6667Z" fill="white"/>
<path fill-rule="evenodd" clip-rule="evenodd" d="M323.33 21.608C325.546 21.6081 327.677 22.4596 329.283 23.9863C329.404 24.1042 329.598 24.1027 329.717 23.983L330.873 22.8163C330.933 22.7556 330.967 22.6734 330.966 22.5878C330.966 22.5022 330.931 22.4204 330.87 22.3603C326.655 18.3208 320.005 18.3208 315.79 22.3603C315.729 22.4203 315.694 22.5021 315.694 22.5877C315.693 22.6733 315.727 22.7556 315.787 22.8163L316.943 23.983C317.062 24.1029 317.256 24.1044 317.377 23.9863C318.983 22.4595 321.114 21.608 323.33 21.608ZM323.33 25.4037C324.548 25.4036 325.722 25.8561 326.624 26.6733C326.746 26.7893 326.939 26.7868 327.058 26.6677L328.212 25.501C328.273 25.4398 328.307 25.3568 328.306 25.2705C328.305 25.1843 328.27 25.102 328.208 25.042C325.459 22.4856 321.204 22.4856 318.455 25.042C318.393 25.102 318.358 25.1843 318.357 25.2706C318.356 25.3569 318.39 25.4399 318.451 25.501L319.605 26.6677C319.724 26.7868 319.917 26.7893 320.039 26.6733C320.941 25.8567 322.114 25.4042 323.33 25.4037ZM325.643 27.9575C325.645 28.044 325.611 28.1274 325.549 28.188L323.552 30.2037C323.493 30.2629 323.414 30.2963 323.33 30.2963C323.247 30.2963 323.167 30.2629 323.109 30.2037L321.111 28.188C321.049 28.1274 321.015 28.0439 321.017 27.9574C321.019 27.8709 321.056 27.789 321.121 27.731C322.396 26.6521 324.264 26.6521 325.54 27.731C325.604 27.7891 325.642 27.871 325.643 27.9575Z" fill="white"/>
<path fill-rule="evenodd" clip-rule="evenodd" d="M309.667 19.6666H308.667C308.114 19.6666 307.667 20.1143 307.667 20.6666V29.3333C307.667 29.8856 308.114 30.3333 308.667 30.3333H309.667C310.219 30.3333 310.667 29.8856 310.667 29.3333V20.6666C310.667 20.1143 310.219 19.6666 309.667 19.6666ZM304 22H305C305.552 22 306 22.4477 306 23V29.3333C306 29.8856 305.552 30.3333 305 30.3333H304C303.448 30.3333 303 29.8856 303 29.3333V23C303 22.4477 303.448 22 304 22ZM300.333 24.3333H299.333C298.781 24.3333 298.333 24.781 298.333 25.3333V29.3333C298.333 29.8856 298.781 30.3333 299.333 30.3333H300.333C300.886 30.3333 301.333 29.8856 301.333 29.3333V25.3333C301.333 24.781 300.886 24.3333 300.333 24.3333ZM295.667 26.3333H294.667C294.114 26.3333 293.667 26.781 293.667 27.3333V29.3333C293.667 29.8856 294.114 30.3333 294.667 30.3333H295.667C296.219 30.3333 296.667 29.8856 296.667 29.3333V27.3333C296.667 26.781 296.219 26.3333 295.667 26.3333Z" fill="white"/>
<path d="M37.3207 30.2563C40.0087 30.2563 41.6054 28.1543 41.6054 24.5947C41.6054 23.2544 41.349 22.1265 40.8583 21.2549C40.1479 19.8999 38.9247 19.1675 37.3793 19.1675C35.0795 19.1675 33.4535 20.7129 33.4535 22.8809C33.4535 24.917 34.9184 26.3965 36.9325 26.3965C38.1703 26.3965 39.1737 25.8179 39.6718 24.8145H39.6938C39.6938 24.8145 39.7231 24.8145 39.7304 24.8145C39.745 24.8145 39.7963 24.8145 39.7963 24.8145C39.7963 27.2314 38.8808 28.6743 37.3354 28.6743C36.4272 28.6743 35.724 28.1763 35.4823 27.3779H33.6C33.9149 29.1138 35.3871 30.2563 37.3207 30.2563ZM37.3866 24.895C36.1708 24.895 35.3065 24.0308 35.3065 22.8223C35.3065 21.6431 36.2148 20.7422 37.394 20.7422C38.5732 20.7422 39.4814 21.6577 39.4814 22.8516C39.4814 24.0308 38.5951 24.895 37.3866 24.895Z" fill="white"/>
<path d="M44.6965 30.1538C45.3923 30.1538 45.8684 29.6558 45.8684 28.9966C45.8684 28.3301 45.3923 27.8394 44.6965 27.8394C44.008 27.8394 43.5246 28.3301 43.5246 28.9966C43.5246 29.6558 44.008 30.1538 44.6965 30.1538ZM44.6965 24.6606C45.3923 24.6606 45.8684 24.1699 45.8684 23.5107C45.8684 22.8442 45.3923 22.3535 44.6965 22.3535C44.008 22.3535 43.5246 22.8442 43.5246 23.5107C43.5246 24.1699 44.008 24.6606 44.6965 24.6606Z" fill="white"/>
<path d="M52.7241 30H54.5332V28.0298H55.9614V26.4331H54.5332V19.4312H51.8672C49.9995 22.2437 48.5127 24.5947 47.5606 26.3452V28.0298H52.7241V30ZM49.311 26.3672C50.5415 24.1992 51.6401 22.4634 52.6509 20.9692H52.7534V26.4771H49.311V26.3672Z" fill="white"/>
<path d="M59.99 30H61.8797V19.4312H59.9974L57.2361 21.3647V23.1812L59.8655 21.3354H59.99V30Z" fill="white"/>
</svg>
