<svg width="32" height="32" viewBox="0 0 32 32" fill="none" xmlns="http://www.w3.org/2000/svg">
<path d="M21.0018 3.11679C21.0018 2.23783 20.0177 2.23782 19.5803 2.34769C20.1926 1.86426 20.9107 1.98147 21.1658 2.12796L27.0791 5.02747C27.6426 5.30375 28 5.8786 28 6.50857V25.5831C28 26.2215 27.6331 26.8025 27.0582 27.0743L21.4938 29.7054C21.1111 29.8701 20.2801 30.2767 19.5803 29.7053C20.455 29.8702 20.9289 29.2476 21.0018 28.8264V3.11679Z" fill="url(#paint0_linear_1_13646)"/>
<path d="M19.6512 2.3318C20.1154 2.24006 21.0018 2.2826 21.0018 3.11675V9.68243L3.07359 23.2452C2.76022 23.4823 2.3192 23.4429 2.05229 23.1541L0.204532 21.1547C-0.0849358 20.8415 -0.0646824 20.3512 0.249624 20.0632L19.5802 2.34764L19.6512 2.3318Z" fill="url(#paint1_linear_1_13646)"/>
<path d="M21.0018 22.3706L3.07359 8.8078C2.76022 8.57073 2.3192 8.61006 2.05229 8.89888L0.204532 10.8983C-0.0849358 11.2115 -0.0646824 11.7018 0.249624 11.9898L19.5802 29.7054C20.455 29.8702 20.9289 29.2476 21.0018 28.8264V22.3706Z" fill="url(#paint2_linear_1_13646)"/>
<defs>
<linearGradient id="paint0_linear_1_13646" x1="23.7901" y1="2" x2="23.7901" y2="30" gradientUnits="userSpaceOnUse">
<stop stop-color="#32B5F1"/>
<stop offset="1" stop-color="#2B9FED"/>
</linearGradient>
<linearGradient id="paint1_linear_1_13646" x1="21.0018" y1="5.53387" x2="1.0217" y2="22.305" gradientUnits="userSpaceOnUse">
<stop stop-color="#0F6FB3"/>
<stop offset="0.270551" stop-color="#1279B7"/>
<stop offset="0.421376" stop-color="#1176B5"/>
<stop offset="0.618197" stop-color="#0E69AC"/>
<stop offset="0.855344" stop-color="#0F70AF"/>
<stop offset="1" stop-color="#0F6DAD"/>
</linearGradient>
<linearGradient id="paint2_linear_1_13646" x1="1.15522" y1="9.98367" x2="21.0791" y2="26.4806" gradientUnits="userSpaceOnUse">
<stop stop-color="#1791D2"/>
<stop offset="1" stop-color="#1173C5"/>
</linearGradient>
</defs>
</svg>
